<svg width="17" height="16" viewBox="0 0 17 16" fill="none" xmlns="http://www.w3.org/2000/svg">
<path d="M7.33333 13.5001C8.81248 13.4998 10.249 13.0046 11.4142 12.0934L15.0775 15.7567L16.2558 14.5784L12.5925 10.9151C13.5042 9.7498 13.9996 8.31295 14 6.83341C14 3.15758 11.0092 0.166748 7.33333 0.166748C3.6575 0.166748 0.666664 3.15758 0.666664 6.83341C0.666664 10.5092 3.6575 13.5001 7.33333 13.5001ZM7.33333 1.83341C10.0908 1.83341 12.3333 4.07591 12.3333 6.83341C12.3333 9.59091 10.0908 11.8334 7.33333 11.8334C4.57583 11.8334 2.33333 9.59091 2.33333 6.83341C2.33333 4.07591 4.57583 1.83341 7.33333 1.83341Z" fill="black"/>
</svg>
