<?xml version="1.0" encoding="utf-8"?>
<!-- Generator: Adobe Illustrator 25.3.1, SVG Export Plug-In . SVG Version: 6.00 Build 0)  -->
<svg version="1.1" xmlns="http://www.w3.org/2000/svg" xmlns:xlink="http://www.w3.org/1999/xlink" x="0px" y="0px"
	 viewBox="50 50 550 550" style="enable-background:new 0 0 639.1 659.1;" xml:space="preserve">
<style type="text/css">
	.st0{display:none;}
	.st1{display:inline;fill:none;stroke:#EC008C;stroke-width:2.4314;stroke-miterlimit:10;}
	.st2{display:inline;}
	.st3{fill:none;stroke:#EC008C;stroke-width:2.4081;stroke-miterlimit:10;}
	.st4{fill:#EC008C;}
	.st5{font-family:'ChronicleTextG1-SemiItalic';}
	.st6{font-size:33.7132px;}
</style>
<g id="Layer_1">
	<g>
		<g>
			<g>
				<g>
					<path d="M67.9,498.9c9.7-1.3,11.8-5.5,11.8-15.8v-40.2c0-5.2-3-9.5-11.8-9.8v-2.8H98l19.3,51.1h0.7l18-51.1h28v2.8
						c-8.4,0.3-10.2,1.8-10.2,5.4v55c0,3.7,1.8,5.1,10.2,5.4v2.8h-35.2v-2.8c6.9-0.3,9.3-1.5,9.3-5.4v-54.6h-0.6l-22.8,62.8h-5.5
						l-24.8-62.8h-0.7v44.2c0,10.3,2,14.4,12.1,15.8v2.8h-28V498.9z"/>
					<path d="M169.4,498.9c8.6-0.3,10.4-1.7,10.4-5.4v-55c0-3.6-1.8-5.1-10.4-5.4v-2.8h36.7v2.8c-8.6,0.3-10.4,1.8-10.4,5.4v55
						c0,3.7,1.8,5.1,10.4,5.4v2.8h-36.7V498.9z"/>
					<path d="M227,445.7h-0.3v37.4c0,10.3,2.3,14.7,12.8,15.8v2.8h-28.7v-2.8c9.7-1.3,11.8-5.5,11.8-15.8v-39.2
						c0-5.8-3-10.3-11.8-10.8v-2.8h24.1l38.8,50.5h0.3v-31.8c0-10.2-3.1-14.7-13.4-15.8v-2.8h28.8v2.8c-9.6,1.4-11.3,5.6-11.3,15.8
						v53.9h-6.9L227,445.7z"/>
					<path d="M291.2,498.9c8.4-0.3,10.2-1.7,10.2-5.4v-55c0-3.6-1.8-5.1-10.2-5.4v-2.8h61.5l0.5,24.2l-3.3,0.1
						c-5.7-14.1-9.4-21-22.1-21h-10.5v29.7h3.7c7.8,0,11.5-2.2,14.7-12.5h2.7v28.6h-2.7c-3.2-10.3-6.9-12.6-14.7-12.6h-3.7v31.6h9.9
						c15.1,0,19.5-7.1,25.6-22.7l3.3,0.2l-0.7,25.8h-64.1V498.9z"/>
					<path d="M388.4,493.5c0,3.9,2.7,5.1,9.7,5.4v2.8h-35.7v-2.8c8.4-0.3,10.2-1.7,10.2-5.4v-55c0-3.6-1.8-5.1-10.2-5.4v-2.8h35.4
						c21.5,0,28.5,8.2,28.5,17.4c0,8.7-5.3,15.3-21.1,17.8v0.3c14.9,0.4,18.7,6.6,19.7,15.5l0.9,8.2c0.9,7.7,2.5,9,10.5,9.3v2.8
						c-3.5,0.4-6.9,0.6-9.8,0.6c-14.2,0-16.6-3.9-17.3-12.9l-0.7-8.6c-0.8-10.4-3.7-13.4-15.1-13.4h-5.1V493.5z M394.8,464.2
						c12.3,0,15.1-4.4,15.1-15.6c0-9.6-3.7-15-16-15h-5.4v30.6H394.8z"/>
					<path d="M436.8,441.9c-2.2-5.8-4.1-7.5-11.5-8.7v-2.8h37.1v2.8c-9.6,0.5-11.1,2.6-9.3,7.5l16.9,46.1h0.6l14.8-40
						c3.4-9.2,2.2-12-7.5-13.6v-2.8h25.5v2.8c-7.3,1.5-9.5,4.5-13.5,15.1l-21.1,54.7h-8.7L436.8,441.9z"/>
					<path d="M555,490.7l-22-60.4h-25.9v2.8c9.2,1.4,12.8,4.1,9,14.2l-14,36.3c-3.9,9.9-6.7,13.6-13.6,15.3v2.8h24.8v-2.8
						c-9.2-1.4-10.5-4.1-6.7-14.2l3.6-9.5h23.1l5.5,15.9c1.9,5.2,0.1,7.3-9.7,7.8v2.8h37.3v-2.8C558.6,497.6,557,496.1,555,490.7z
						 M511.3,471.8l10.3-27.8h0.7l9.6,27.8H511.3z"/>
				</g>
				<g>
					<g>
						<g>
							<g>
								<g>
									<path d="M558.6,429.1c5.1,0,9.4,4,9.4,9.3c0,5.4-4.3,9.4-9.4,9.4c-5.1,0-9.4-4-9.4-9.4
										C549.2,433.2,553.5,429.1,558.6,429.1z M558.6,446.5c4.3,0,7.7-3.5,7.7-8c0-4.5-3.4-7.9-7.7-7.9c-4.4,0-7.7,3.5-7.7,7.9
										C550.9,443,554.2,446.5,558.6,446.5z M554.9,433h4.2c2.6,0,3.8,1,3.8,3.1c0,2-1.3,2.8-2.9,3l3.1,4.8h-1.8l-3-4.7h-1.8v4.7
										h-1.7V433z M556.6,437.9h1.8c1.5,0,2.9-0.1,2.9-1.8c0-1.5-1.2-1.7-2.4-1.7h-2.3V437.9z"/>
								</g>
							</g>
						</g>
					</g>
				</g>
			</g>
			<g>
				<path d="M78,575.1v-25.3c0-2.3-1.3-3.2-6.5-3.4v-1.6h20.1v1.6c-5.1,0.2-6.1,1-6.1,3.4v24.6c0,8.5,5.1,11.6,12.1,11.6
					c3.2,0,5.9-1,7.8-2.9c2.2-2.2,3.4-4.9,3.4-9.7v-18c0-6-1.7-8.3-7.9-9.1v-1.5h16.9v1.5c-5.8,0.9-6.7,3.1-6.7,9.1v19
					c0,8.2-5.2,14.3-16.1,14.3C84.3,588.7,78,583.9,78,575.1z"/>
				<path d="M139.5,552.5h-0.1V577c0,6.1,1.2,8.3,7.5,9.1v1.5h-16.8v-1.5c5.8-0.9,7.1-3,7.1-9.1v-24.7c0-3.2-1.9-5.9-7.1-6v-1.6
					h13.1l24,32.1h0.1v-21.5c0-6-1.7-8.3-7.9-9.1v-1.5h16.9v1.5c-5.8,0.9-6.8,3.1-6.8,9.1v33.1h-2.9L139.5,552.5z"/>
				<path d="M189.8,586.1c5.4-0.2,6.7-1.1,6.7-3.4v-32.9c0-2.3-1.3-3.2-6.7-3.4v-1.6h20.8v1.6c-5.4,0.2-6.6,1.1-6.6,3.4v32.9
					c0,2.3,1.2,3.2,6.6,3.4v1.6h-20.8V586.1z"/>
				<path d="M228.2,551.7c-1.4-3.6-2.5-4.6-7.1-5.4v-1.5h20.3v1.5c-5.7,0.3-6.6,1.6-5.5,4.6l10.4,28.9h0.4l9.4-25.2
					c2.2-5.8,1.4-7.4-4.4-8.3v-1.5h15v1.5c-4.4,0.9-5.8,2.8-8.2,9.1l-13,33.2h-3.4L228.2,551.7z"/>
				<path d="M276.7,586.1c5.3-0.2,6.6-1.1,6.6-3.4v-32.9c0-2.3-1.3-3.2-6.6-3.4v-1.6h35.7l0.2,13.5l-1.6,0.1
					c-3-8-5.2-11.6-12.6-11.6h-7.7v17.9h3.2c4.8,0,7-1.2,8.8-7.7h1.5v17.4h-1.5c-1.8-6.5-4-7.8-8.8-7.8h-3.2v19.3h7.5
					c8.7,0,11.5-4,14.7-12.6l1.6,0.1l-0.4,14.5h-37.5V586.1z"/>
				<path d="M345.5,582.6c0,2.4,1.2,3.2,6.3,3.4v1.6h-20.4v-1.6c5.3-0.2,6.6-1.1,6.6-3.4v-32.9c0-2.3-1.3-3.2-6.6-3.4v-1.6h19.5
					c12.8,0,17.1,4.8,17.1,10.4c0,5.2-3.2,9.2-12.3,10.8v0.2c8.7,0.5,10.5,4.1,11.3,9.7l0.6,4.6c0.8,4.7,1.8,5.5,6.8,5.7v1.5
					c-1.6,0.3-3.5,0.4-4.9,0.4c-7.9,0-9.3-2.2-9.8-7.8l-0.5-5.3c-0.6-6.3-2.5-7.8-9.5-7.8h-4.2V582.6z M350.2,565.2
					c8,0,9.8-3.4,9.8-9.7c0-5.8-2.5-8.9-10.4-8.9h-4v18.6H350.2z"/>
				<path d="M389.3,574h1.6c3.5,7.8,7.9,12.7,13.9,12.7c6,0,8.8-4,8.8-7.8c0-5.1-3.4-7-11.1-9.6c-6.2-2.2-12.6-4.2-12.6-12.2
					c0-8.1,6.2-13.2,14.5-13.2c3.6,0,6.8,0.9,8.9,1.8l2.1-2.2h1.4v13.3h-1.7c-2.9-7.1-6.7-11.1-11.6-11.1c-4.2,0-7.7,2.7-7.7,7.5
					c0,4.9,3.7,6.6,10.8,8.9c5.9,2,12.1,4.2,12.1,12.3c0,6.8-4,14.2-14.8,14.2c-3.5,0-7.5-1-10.1-2.3l-3.3,2.6h-1.4V574z"/>
				<path d="M434.9,586.1c5.4-0.2,6.7-1.1,6.7-3.4v-32.9c0-2.3-1.3-3.2-6.7-3.4v-1.6h20.8v1.6c-5.4,0.2-6.6,1.1-6.6,3.4v32.9
					c0,2.3,1.2,3.2,6.6,3.4v1.6h-20.8V586.1z"/>
				<path d="M479.5,586.1c5.6-0.1,7.1-1.1,7.1-3.4v-36h-2.4c-5.2,0-8,3.9-11.4,11.9l-1.6-0.1l0.3-13.7h37.6l0.4,13.7l-1.6,0.1
					c-3.2-7.7-6.1-11.9-11.4-11.9h-2.5v36c0,2.3,1.6,3.3,7.2,3.4v1.6h-21.8V586.1z"/>
				<path d="M552.6,553.7c2.9-5,2.7-6.5-3-7.4v-1.5h14.7v1.5c-4,0.7-5.8,2-9.1,7.5l-8.9,14.9v13.9c0,2.3,1.2,3.2,6.6,3.4v1.6h-20.8
					v-1.6c5.4-0.2,6.7-1.1,6.7-3.4v-12.8l-10.9-19c-1.7-2.8-2.9-3.8-6.7-4.5v-1.5h19.9v1.5c-5.9,0.3-6.3,1.8-4.7,4.7l8.7,15.6
					L552.6,553.7z"/>
			</g>
		</g>
		<g>
			<g>
				<path d="M439.7,214.8c-0.4-0.4-1.5-1.5-2-1.8c-0.5-0.4-1-2.7-1.1-2.9c-0.5-1.8-0.5-3.6-1-5.3c-0.2-0.8-0.2-1.7-0.2-1.9
					c0.1-0.3,1.2,0.1,1.5-0.2c0.4-0.4,0.3-0.9,0.1-1.1c-0.2-0.3-0.8-1.1-0.7-1.5c0.1-0.4,0-0.7-0.2-1.1c-0.2-0.5-0.4-0.9-0.5-1.4
					c-0.2-0.7-0.3-1.4-0.8-2c-0.5-0.6-0.9-1.6-1.3-2.3c-0.1-0.2-0.2-0.3-0.2-0.5c-0.3-0.7-1.1-1-1.4-1.7c-0.3-1-0.5-2-0.9-3
					c-0.2-0.6-1.4-3.3-1.7-3.7c-0.5-1-1.8-2.3-2.8-2.9c-0.2-0.1-0.3-0.4-0.4-0.7c-0.4-1-0.8-1.9-1.5-2.7c-0.1-0.2-0.2-0.4-0.4-0.6
					c-1.1-1.7-5.5-6.2-6.8-7.8c-0.4-0.5-1.1-0.8-1.6-1.2c-0.1-0.1-1.8-1.2-2-0.9c-0.1,0.2,0.2,0.7,0,0.6c-0.3-0.1-1.7-2.4-1.9-2.5
					c-0.2-0.1-0.1,0.1-0.2,0.3c-0.1,0.2,1.4,2.5,1.1,2.6c-0.2,0.1-0.1,0.1-0.3,0.1c-0.3-0.1-2.7-3.5-2.9-3.5c-0.2,0.1-1.6-2-1.6-1.7
					c0,0.2,1.3,2.7,1.5,2.7c0.3,0.2,2.1,3,1.9,3.3c-0.9-0.8-2.1-2.4-2.7-2.2c-0.2,0.1,1.1,1.7,0.2,2c-0.3-0.3-4.6-5-5-5.1
					c-0.7-0.1,1.5,1.8,1.3,2.1c-0.3,0.5,3.3,4.5,3.3,5.1c0,0.5-1.1,0.8-1.8,0.8c-0.1,0-0.4,0.1-0.3,0.2c0,0.1,0.1,0.2,0.2,0.4h0
					c0.3,0.5,2.1,3.4,2.3,3.9c0.2,0.6,0.4,1,0.5,1.6c0.2,0.7,0.5,1.5,0.9,2.2c0.1,0.2,0.2,0.5,0.2,0.7c0,0.2,0.1,0.5,0,0.7
					c0,0.1-0.1,0.1-0.1,0.2l0.2,0.1c0.1,0,0.4,0.1,0.6,0.5c0.4,0.7,0.2,1.8-0.4,2.3c-0.1,0.1-0.3,0.2-0.4,0.2c0,0-0.2,0-0.2,0
					c0,0-0.1,0-0.1,0c-0.2,0-0.4-0.1-0.6-0.3c0,0-0.1-0.1-0.1-0.1l0,0c0.1,0.1,0.1,0.3,0.1,0.4c0.2,0.7,0.3,1.5,0.3,2.2c0,0,0,0,0,0
					c0.2,0.2,0.4,0.4,0.4,0.8c0,0.3,0.1,0.7,0,1c-0.1,0.3-0.1,0.6,0,1c0,0.4,0.1,0.8,0,1.3c0.4,0.6,0.5,1.2,0.5,1.6
					c0,0.2,0,0.4,0.1,0.5c0,0.2,0.1,0.3,0.2,0.5c0,0.1,0.1,0.2,0.1,0.3c0,0,0,0,0-0.1c0.2-0.2,0.5-0.4,0.8-0.4c0.5,0,1,0.4,1.1,0.9
					c0.1,0.7,0.1,1.4,0.1,2.2l0.1,0.8c0,0.1,0,0.2-0.1,0.3c-0.1,0.1-0.1,0.3-0.2,0.5c-0.2,0.3-0.5,0.5-0.9,0.5h0
					c-0.2,0-0.5-0.1-0.6-0.3c0,0.4-0.1,0.6-0.3,0.8c0.2,0.2,0.3,0.4,0.4,0.7c0,0,0,0,0,0c0,0,0.1,0.1,0.1,0.1c0.2,0.2,0.5,0.6,0.5,1
					c0,0.6-0.1,1.1-0.2,1.6c-0.1,0.4-0.1,0.6,0,0.9c0.3,1.1,0.1,2.1-0.6,3.2c-0.1,0.1-0.1,0.1-0.1,0.1c0.6,0.4,0.9,1.1,0.8,1.9
					c-0.1,0.6,0.2,1.7,0.4,2.7c0.2,1,0.4,1.9,0.4,2.6c0,0.5-0.2,1-0.4,1.4c-0.1,0.4-0.3,0.8-0.3,1.1c0,1-0.1,2-0.5,3.2
					c-0.1,0.4-0.2,0.8,0,1.4c0.1,0.3,0.1,0.8-0.1,1.2c-0.1,0.3-0.2,0.5-0.2,0.7c0,0.8-0.1,1.6-0.3,2.2h0c0,0,0.1,0.1,0.1,0.2
					c0.1,0.2,0.2,0.4,0.3,0.7c0.1,0.6-0.1,1.1-0.2,1.5c-0.4,1-0.1,1.3,0.1,1.6c0.1,0.1,0.2,0.2,0.2,0.3c0.1,0.3,0.1,0.7-0.2,1
					c0.1,0.1,0.1,0.2,0.1,0.3c0,0.2,0,0.5-0.4,0.9c-0.1,0-0.1,0.1-0.1,0.1c0.1,0.4,0,0.9-0.6,1.2c0,0,0,0.1,0,0.2
					c-0.1,1.2-0.6,2.3-1.1,3.3c-0.2,0.4-0.3,0.8-0.5,1.2l0.1,0l0.1,0c0.3,0,0.6,0.2,0.7,0.5l0.2,0.4l-0.3,0.4c0,0,0,0.1-0.1,0.2
					c-0.1,0.4-0.3,1-1.2,1.2c0,0-0.1,0.2-0.1,0.2c-0.4,1.1-0.9,2.2-1.3,3.3c0.1-0.1,0.1-0.2,0.2-0.2c0.2-0.2,0.5-0.4,1-0.4
					c0.1,0,0.2,0.1,0.4,0.1c0.1-0.5,0.4-1,0.7-1.4c0.3-0.3,0.8-0.5,1.2-0.5c0,0,0.2,0,0.2,0c0.5,0.1,0.7,0.4,0.9,0.7
					c0.1,0.1,0.1,0.2,0.2,0.2c0.2,0.2,0.3,0.6,0.2,0.8c-0.1,0.2-0.1,0.3-0.2,0.4c-0.2,0.5-0.4,1-0.6,1.4c-0.3,0.5-0.9,0.7-1.3,0.7
					c0,0-0.2,0-0.2,0c-0.2,0-0.3-0.1-0.5-0.2c-0.1,0.2-0.2,0.4-0.3,0.6c-0.1,0.2-0.1,0.3-0.2,0.4c-0.3,0.6-0.5,1.3-0.6,2
					c0.1,0,0.2-0.1,0.4-0.1c0.3,0,0.5,0.1,0.7,0.3c0.2,0.2,0.6,0.7,0.4,1.2c-0.1,0.4-0.2,0.8-0.4,1.2c-0.1,0.3-0.4,0.5-0.6,0.6
					l-0.2,0.1c-0.1,0.1-0.2,0.1-0.3,0.1c-0.2,0-0.3,0-0.4-0.1l-0.1-0.1c-0.1,0-0.1-0.1-0.2-0.1c-0.2,0.4-0.4,0.8-0.7,1.1
					c0.1,1-0.3,1.9-0.6,2.6c-0.3,0.7-0.6,1.3-0.9,1.8c-0.3,0.5-0.6,1-0.7,1.4c-0.1,0.2-0.1,0.3-0.1,0.4c-0.3,1.3-1.4,2.5-2,3.1
					c0,0.2,0,0.3,0,0.4c0,0.4-0.1,0.8-0.3,1.2c-0.1,0.1-0.1,0.2-0.2,0.3l0,0c0.2,0.1,0.3,0.2,0.4,0.4l0.1,0.3
					c0.1,0.1,0.1,0.3,0.1,0.4c0,0.2-0.1,0.3-0.1,0.5c-0.4,0.9-0.8,1.8-1.2,2.6c-0.3,0.6-0.7,0.8-1,0.8c0,0-0.1,0-0.1,0
					c0.1,0.2,0.2,0.3,0.2,0.5c0,0.5-0.2,1-0.5,1.4c-0.2,0.3-0.6,0.3-0.7,0.3c-0.1,0-0.1,0-0.2,0c0,0,0,0-0.1,0c-0.1,0.4-0.4,0.8-1,1
					c-0.4,0.1-0.4,0.2-0.3,0.4c0.1,0.7-0.2,1.4-1,1.8c-0.5,0.3-0.6,0.5-0.7,0.9c0,0.2-0.1,0.4-0.1,0.5c-0.2,0.5-0.5,0.8-0.7,1
					c-0.1,0.1-0.2,0.2-0.2,0.2c-0.2,0.7-0.5,1.1-0.9,1.6l-0.1,0.1c-0.5,0.6-0.6,0.7-0.5,1c0.1,0.3,0.1,0.6,0,0.9
					c-0.2,0.3-0.4,0.5-0.8,0.6c-0.3,0.1-0.4,0.3-0.7,0.8l-0.1,0.1c0.2,0.4,0.3,0.9,0.1,1.3c-0.1,0.4-0.4,0.8-0.8,1
					c-0.1,0.1-0.2,0.2-0.4,0.3c-0.4,0.3-0.8,0.6-1.5,0.7c-0.1,0-0.3,0.1-0.4,0.3l-0.4,0.6c-0.3,0.5-0.6,0.9-0.9,1.3
					c-0.2,0.3-0.2,0.4-0.2,0.5c-0.1,0.7-0.6,1.2-1.2,1.2c0,0,0,0-0.1,0h-0.1c-0.3,0-0.6-0.1-0.8-0.4c-0.1-0.1-0.1-0.1-0.1-0.2
					c0,0,0,0,0,0c-0.1,0.1-0.3,0.3-0.6,0.3c-0.3,0-0.4-0.1-0.6-0.2c-0.1,0-0.1,0-0.2,0h-0.4l-0.3-0.5c0,0,0-0.1-0.1-0.1
					c-0.2,0.6-0.6,1-1,1.3c-0.1,0.1-0.3,0.3-0.4,0.4c-0.4,0.5-0.9,0.9-1.5,1.1c-0.1,0-0.2,0.1-0.2,0.1c0.1,0.6-0.3,1.1-0.8,1.3
					c-0.8,0.3-1.2,1-1.7,2c-0.2,0.4-0.7,0.8-1.6,1.1c0,0.1,0.1,0.2,0.1,0.3c0,0.3-0.1,0.6-0.4,0.8c-0.1,0.1-0.2,0.2-0.3,0.3
					c-0.4,0.3-0.9,0.7-1.6,0.7c-0.4,0-0.7,0.5-1,0.9L372,299c-0.3,0.4-0.6,0.8-1.1,1.1c-0.1,0.2-0.1,0.5-0.1,0.6l0,0.2
					c-0.1,0.9-0.9,1.1-1.3,1.3c-0.1,0-0.1,0.1-0.2,0.1c0,0.1,0,0.1,0,0.2c0.3,0.4,0.4,0.8,0.3,1.2c-0.1,0.4-0.3,0.8-0.7,1
					c-0.1,0.1-0.2,0.1-0.3,0.4c-0.2,0.7-0.8,1-1.2,1.1c0,0,0,0,0,0c0.2,0.7-0.4,1.1-0.6,1.3l-0.1,0.2c-0.1,0.2-0.2,0.4-0.4,0.5
					c-0.5,0.5-1,0.7-1.3,0.7c-0.4,0-1-0.2-1.5-1c0,0,0,0,0,0c0,0-0.1,0-0.1-0.1c-0.2-0.1-0.4-0.2-0.5-0.4c0.1,0.2,0.3,0.4,0.3,0.7
					c0.1,0.8-0.5,1.2-0.9,1.3l0,0c0,0,0,0-0.1,0c0,0.1,0,0.3,0,0.4c-0.1,0.5-0.4,0.9-0.9,1.2c-0.5,0.3-1.1,0.4-1.6,0.5
					c0,0,0,0-0.1,0h0c-0.1,0-0.2,0-0.3-0.1c-0.2-0.1-0.4-0.2-0.6-0.4c-0.2-0.2-0.3-0.6-0.2-0.9c0-0.2,0.1-0.4,0.3-0.5
					c0,0,0.1-0.1,0.2-0.1c0.2-0.1,0.3-0.2,0.5-0.4c0.4-0.3,0.8-0.6,1.3-0.8c0.1,0,0.2,0,0.3-0.1c0-0.5,0.3-1,0.9-1.1
					c0.1,0,0.3-0.1,0.3-0.1c0.3,0,0.5,0.1,0.7,0.3c-0.2-0.3-0.3-0.6-0.2-1c0.2-0.6,0.8-0.7,1.1-0.8c-0.1-0.3,0-0.7,0.2-1
					c0.3-0.5,0.7-0.7,1.1-0.8c0.1,0,0.1,0,0.2-0.1c0-0.1,0-0.1,0-0.2c0-0.1,0-0.1,0-0.2c0-0.3,0.1-0.9,0.6-1.2
					c0.3-0.2,0.5-0.4,0.7-0.8c0.1-0.1,0.2-0.2,0.2-0.3c0.1-0.2,0.4-0.4,0.8-0.6c0.1,0,0.1-0.1,0.2-0.1c0.2-0.3,0.5-0.5,0.7-0.8
					c0.2-0.2,0.4-0.4,0.6-0.7c0.1-0.2,0.2-0.3,0.3-0.5c0.2-0.5,0.4-1,1.1-1.4c0,0,0.1-0.1,0.1-0.2c0.2-0.7,0.8-1.2,1.3-1.6
					c0.2-0.2,0.5-0.4,0.6-0.5c1-1.3,2.1-2.8,3.1-4.4c0.2-0.4,0.5-0.7,0.7-1.1c0.4-0.6,0.8-1.1,1.1-1.7c0.8-1.4,1.5-2.7,2.3-3.8
					l0.1-0.2c0.3-0.8,0.9-1.8,1.5-2.4c0,0,0.1-0.1,0.1-0.1c0.2-0.2,0.4-0.6,0.9-0.6h0.2l0.3,0.2c0.1,0.1,0.2,0.1,0.2,0.2
					c0.3-0.4,0.7-0.7,1.1-0.9c-0.3-0.8,0.3-1.5,0.5-1.7c0.1-0.1,0.2-0.2,0.3-0.3c0.3-0.4,0.6-0.8,1.1-1.1c0.2-0.1,0.4-0.3,0.8-0.4
					c-0.2-0.5-0.1-1,0.1-1.3c0,0-0.1,0.1-0.1,0.1c-0.1,0.1-0.2,0.1-0.4,0.2c-0.1,0-0.2,0-0.2,0c0,0-0.1,0-0.1,0c0,0-0.1,0-0.2,0
					c-0.1,0-0.4-0.1-0.6-0.3c-0.1-0.2-0.4-0.5-0.3-1c0.4-1.1,0.9-2,1.5-2.7c0.2-0.2,0.4-0.3,0.8-0.3c0.1,0,0.2,0,0.2,0
					c0.5,0.1,0.8,0.5,0.8,0.9c0,0.3-0.1,0.8-0.4,1.3c0,0,0-0.1,0-0.1c0.2-0.2,0.3-0.5,0.3-0.7c0.1-0.5,0.5-0.9,0.9-1
					c0.3-0.1,0.5-0.3,0.7-0.9c0.1-0.3,0.3-0.6,0.6-0.7c-0.1-0.3-0.1-0.6,0-0.9c0.1-0.3,0.3-0.5,0.7-0.7c0-0.1,0.1-0.4,0.1-0.4
					c-0.2-0.1-0.3-0.2-0.4-0.4c-0.1,0.2-0.2,0.4-0.4,0.6c-0.2,0.2-0.5,0.2-0.8,0.2c0,0-0.2,0-0.2,0c-0.4-0.1-0.6-0.3-0.8-0.6
					c-0.1-0.3-0.1-0.7,0-1c0.1-0.3,0.3-0.5,0.4-0.8c0.1-0.2,0.4-0.4,0.9-0.4c0.4,0,0.7,0.2,0.8,0.5c0,0,0,0,0-0.1l0.2-0.2l0.4-0.1
					c0.2,0,0.5,0.1,0.6,0.2c0.3-0.5,0.6-0.9,1.1-1.1c0.6-0.3,0.9-0.7,1-1.2c0.1-0.4,0.3-0.7,0.5-1c0.5-0.8,0.7-1.5,0.9-2.4
					c0.1-0.5,0.3-0.8,0.8-1c0.1,0,0.2-0.1,0.2-0.2c0.1-0.6,0.4-1.1,0.7-1.6c0.2-0.4,0.4-0.8,0.5-1.1c0.2-0.8,0.6-1.5,1-2.1
					c0.5-0.7,0.8-1.3,1-1.9c0.2-0.9,0.6-1.6,1-2.3c0.2-0.3,0.3-0.6,0.5-0.9c0.4-0.8,0.6-1.7,0.9-2.5c0.2-0.9,0.5-1.8,0.9-2.7
					c1.3-2.9,2.1-5.2,2.6-7.5c0-0.1,0-0.2,0.1-0.3c0,0,0,0,0,0c-0.2-0.7,0.2-1.3,0.4-1.7c0.1-0.2,0.2-0.4,0.3-0.5
					c0.2-1.1,0.3-2.1,0.4-3c0-0.6,0-1.2,0.3-1.8c0,0,0-0.1,0-0.1c0-0.2,0-0.4,0.1-0.7c0.2-0.7,0.2-1.4,0.2-2.2c0-0.4,0-0.9,0-1.3
					c0.1-0.9,0.4-1.9,0.8-2.6c0,0,0-0.1,0-0.1c0-0.1,0-0.2,0-0.3c0-1.2,0.1-2.4,0.3-3.7c0-0.2,0.1-0.9,0.7-1.2
					c-0.2-0.1-0.3-0.4-0.4-0.7c-0.1-0.4-0.2-1-0.2-0.7c0,0.4-0.4,0.7-0.6,0.8c-0.2,0.1-0.4,0.1-0.5,0.1h-0.2l-0.3-0.1
					c0,0-0.6-0.3-0.7-0.9l-0.1-0.3l0.2-0.3c0.1-0.3-0.2-1.8-0.4-2.2c-0.5-0.3-0.5-0.6-0.5-0.9c0-0.5,0.4-0.9,0.8-1
					c0-0.2,0-0.3-0.1-0.4c-0.1-0.1-0.1-0.3-0.2-0.7c0-0.2,0-0.4,0-0.6c0,0,0-0.1,0-0.1c-0.1,0-0.1-0.1-0.2-0.2
					c-0.2-0.2-0.2-0.5-0.1-0.9c0.1-0.4,0.3-0.6,0.7-0.7c-0.1-0.2-0.1-0.4-0.1-0.7c0-0.3,0-0.3-0.1-0.4c-0.5-0.5-0.9-1.4-0.5-2
					c0.3-0.5,0.3-0.6,0.2-0.8c-0.4-0.6-0.2-1.3,0.1-1.8c0.4-0.6,0.4-1.3,0.4-2.2c0-0.2,0-0.3,0-0.3c0-0.1,0-0.2,0-0.3
					c-0.3-0.1-0.4-0.4-0.4-0.8c0-0.3,0.2-0.5,0.4-0.7c0-0.4,0-0.7,0.1-1c0.1-0.5,0.1-0.9,0-1.3c-0.1-0.3-0.1-0.6,0-0.8
					c0.1-0.7,0-1.5-0.2-2.3c-0.1-0.4-0.1-0.8-0.2-1.1c0-0.3-0.1-0.6-0.1-0.9c-0.1-0.7-0.2-1.3-0.1-2.1c0-0.9,0.3-1.8,0.3-2.7
					l-0.1-0.9c0-0.2,0-0.4-0.1-0.5c-0.2-0.6-0.3-1.6-0.4-2.3c-0.2-0.9-0.5-1.8-0.9-2.6c-0.1-0.2-0.1-0.3-0.2-0.5
					c0-0.1,0-0.1-0.1-0.2l-0.2-0.1c-0.3,0.4,0,0.7,0.2,1c0.4,1.1,0.6,2.3,0.8,3.4c0.1,0.4,0.1,0.7,0,1.1c0,0.1-0.1,0.2-0.2,0.2
					c-0.1,0-0.3,0-0.3-0.2c-0.1-0.3-0.1-0.5-0.1-0.8c0-0.3-0.1-0.6-0.3-0.9c0-0.1-0.2-0.1-0.2-0.1c0,0-0.1,0-0.1,0.1
					c0,0.1-0.1,0.2-0.1,0.3c0,1.2,0.2,2.4,0,3.6c-0.1,0.2,0.1,0.5,0.2,0.8c0.1,0.4,0.1,0.7,0,1.1c0,0.1-0.1,0.1-0.2,0.1
					c-0.1,0-0.2-0.1-0.2-0.2c-0.1-0.2-0.2-0.4-0.2-0.7c0-1-0.1-2.1-0.1-3.1c0-0.2-0.3-0.4-0.5-0.4c-0.1,0-0.2,0.2-0.2,0.3
					c0,0.2,0.2,2,0.2,2.2c-0.1,1.2,0.7,5.8,0.7,7.7c0,0.9-0.3,1.8-0.3,2.7c0,0.8,0.4,1.5,0.3,2.3c-0.1,0.8,0.2,1.8,0.1,2.6
					c-0.1,0.7,0,1.5-0.4,2.2c-0.1,0.1-0.1,0.4-0.1,0.5c-0.1,1.5,0.4,3.6,0.1,5.1c-0.5,2.3-0.8,5.3-1.3,7.9c-0.6,2.8-1.6,5.5-2,8.3
					c0,0.1-0.1,0.3-0.1,0.4c-0.5,0.9-0.6,2-0.8,3c-0.1,0.7-0.3,1.3-0.6,1.9c-0.4,0.6-0.3,1.4-0.9,2c-0.1,0-0.1,0.2,0,0.3
					c0.1,1-0.5,1.9-0.7,2.9c0,0.1-0.5,0.8-0.6,0.9c-0.1,0.1-0.6-0.6-0.7-0.6c-0.2,0-0.2-0.2-0.1-0.3c0.3-0.5,0.4-1,0.4-1.6
					c0-0.2,0.1-0.4,0.1-0.7c0.7-2.2,1.3-4.4,2-6.7c0.2-0.8,0.6-1.5,0.8-2.3c0.6-2.2,1.1-4.5,1.7-6.7c0.1-0.6,0.3-1.1,0.4-1.7
					c0.3-1.8,0.3-5.1,0.6-6.9c0.2-1-0.1-2,0-3c0.2-1.8,0.5-3.5,0.8-5.2c0.1-0.7-0.2-1.4-0.2-2.1c0-0.1-0.1-0.2-0.1-0.2
					c-0.1,0-0.2,0.1-0.2,0.1c-0.2,1.1-0.5,2.3-0.6,3.5c-0.1,0.9-0.1,1.7-0.3,2.5c-0.2,1-0.2,2-0.4,2.9c-0.1,0.4-0.3,0.5-0.7,0.4
					c-0.1,0-0.1-0.1-0.2-0.2c-0.3-0.1-0.4,0-0.4,0.3c0,0.4,0.1,0.7,0.6,0.6c0.4,0,0.5,0.1,0.5,0.4c0,0.8-0.2,1.6-0.4,2.4
					c-0.1,0.3,0.3,2.1-0.1,2.3c-0.6,0.2-0.3,0.8-0.3,1.3c-0.1,1.3-0.2,2.6-0.9,3.8c0,0.1-0.1,0.2,0,0.3c0,0.9-0.4,1.7-0.4,2.6
					c0,0.5-0.2,0.9-0.5,1.2c-0.3,0.4-0.4,0.8-0.4,1.2c0,0.4-0.2,1-0.1,1.3c0,0.3,0.1,0.7-0.1,0.9c-0.4,0.4-0.6,1-0.5,1.6
					c0,0.2-0.1,0.2-0.2,0.3c-0.2,0-0.4,0.1-0.5-0.1c-0.1-0.2-0.1-0.3-0.2-0.5c-0.3-0.7,0.2-1.3,0.4-1.9c0.1-0.4,0.4-1,0.5-1.2
					c0.3-0.5,0.4-1.1,0.3-1.7c-0.1-0.4,0.1-0.8,0.5-1.1c0.1-0.1,0-0.3-0.2-0.3c-0.1,0-0.3,0-0.4,0c-0.1,0-0.1,0-0.2,0
					c-0.6,0.7-1,1.4-1,2.4c0,0.6-1.5,3.6-1.1,4.5c0.1,0.2-0.3,1.5-0.3,1.7c0,0.6,0.5,1,0.6,0.8c0.2-0.3,0.4-0.8,0.7-1.6
					c0-0.1,0.1-0.1,0.2-0.2c0.1,0,0.2,0,0.2,0c0.1,0.2,0.2,0.5,0.3,0.7c0,0.3-0.1,0.4-0.2,0.6c0,0-0.3,0.4-0.3,0.4
					c-0.6,0.8-0.3,1.8-0.4,2.7c0,0.3,0.1,0.4-0.2,0.7c-0.4,0.4-0.2,0.9-0.4,1.4c-0.1,0.5-0.3,0.7-0.3,1.3c0,0.1,0,0.2,0,0.3
					c0,0.2,0,0.4-0.1,0.5c-0.4,0.6-0.6,1.1-0.4,1.8c0.1,0.2-0.1,0.5-0.4,0.6c-0.2,0-0.3-0.2-0.2-0.6c0-0.1,0.1-0.2,0.1-0.3
					c0-0.1-0.1-0.2-0.2-0.3c0,0-0.2,0-0.2,0c-0.4,0.4-0.8,0.8-0.8,1.4c0,0.2-0.6,1.3-0.6,1.7c0,0.3,0,0.5-0.1,0.6
					c-0.6,0.9-0.9,1.9-1.3,2.8c-0.3,0.6-0.5,1.3-0.5,2c0,0.3-0.1,0.4-0.2,0.6c-0.5,0.6-0.6,1.3-0.6,2c0,0.2,0.1,0.5,0,0.7
					c-0.4,0.7-1.8,4.9-2.2,5.6c-0.3,0.6-2.3,5.7-2.6,6.2c-0.2,0.3-0.2,0.6,0,0.9c0.2,0.3-0.1,0.8-0.3,1c-0.1,0.1-0.3,0.2-0.5,0.3
					c-0.5,0.3-0.8,1.5-0.9,2c-0.2,1.1-0.8,2.4-1.1,2.6c-0.2,0.2-0.5,1-0.5,1c-0.4,0.2-1.3,1.7-1.5,1.8c-0.6,0.8-1.2,2.7-1.5,2.7
					c-0.3,0.1-0.3,0.4-0.5,0.6c-0.4,0.5-0.8,0.9-1,1.5c-0.3,0.7-0.8,1.4-1.4,2c-0.3,0.4-0.6,0.6-0.7,1.1c-0.1,0.3-0.2,0.5-0.4,0.7
					c0-0.2-0.4,0.3-0.4,0.5c0,0,0,0,0,0c-0.3,0.4-0.6,0.9-0.9,1.3c-0.1,0.1-0.9,1.2-0.8,1.2c0,0,0,0,0,0c0,0.1-0.1,0.1-0.1,0.2
					c-0.4,0.6-0.9,1-1.3,1.6c-0.8,1.1-1.5,2.3-2.5,3.2c-0.2,0.2-0.5,0.5-0.5,0.8c-0.2,0.6-0.6,0.9-1.1,1.2c-0.4,0.3-0.8,0.5-0.8,1
					c-0.1,0.6-0.9,0.4-1.1,0.9c-0.1,0.2-0.2,0.3-0.3,0.5c-0.3,0.4-0.6,0.8-0.9,1.2c-0.5,0.4-0.8,1-1.2,1.5c-0.3,0.4-0.5,0.8-0.9,1.2
					c-0.5,0.4-0.9,1-1.4,1.4c-0.7,0.6-1.3,1.4-2.1,1.9c-0.7,0.4-1.3,1-1.8,1.7c-0.8,1-1.5,2.1-2.7,2.8c-0.1,0.1-0.2,0.2-0.3,0.3
					c-0.3,0.5-0.8,0.9-1.2,1.2c-1,0.8-1.9,1.7-2.9,2.4c-0.3,0.2-0.6,0.4-0.8,0.7c-0.6,0.5-1.1,1.1-1.7,1.6c-0.6,0.5-1.2,1-1.7,1.7
					c-0.1,0.2-0.3,0.3-0.5,0.4c-0.5,0.4-1.2,0.5-1.6,0.9c-0.5,0.4-0.9,0.9-1.4,1.2c-0.7,0.4-1.4,0.8-2,1.4c-1,1-2.2,1.7-3.4,2.5
					c-1,0.7-2,1.3-3,2c-0.1,0-0.3,0-0.6,0c0,0.1,0,0.3,0,0.4c-0.1,0.1-0.3,0.2-0.4,0.3c-0.8-0.1-0.8-0.1-0.8,0.3c0,0.1,0,0.1,0,0.2
					c-1.4,0.8-2.7,1.9-4.3,2.4c-0.5,0.1-0.8,0.5-1.3,0.8c-1.5,0.8-3.1,1.5-4.5,2.5c-0.9,0.6-1.9,1.1-3,1.2c-0.3,0.1-0.6,0.2-0.7,0.5
					c-0.2,0.5-0.4,0.5-0.8,0.2c-0.1-0.1-0.3-0.1-0.4-0.1c-0.5,0.2-1,0.3-1.5,0.6c-1,0.6-2.1,1-3.1,1.4c-0.6,0.3-1.2,0.6-1.7,1.1
					c-0.3,0.3-0.7,0.5-1.1,0.7c-0.5,0.2-1,0.4-1.4,0.7c-0.4,0.3-0.7,0.4-1.1,0.4c-0.4,0-0.7,0.2-0.8,0.6c-0.1,0.3-0.4,0.5-0.6,0.5
					c-0.9,0-1.5,0.5-2.3,0.8c-0.5,0.2-1,0.5-1.6,0.2c-0.2-0.1-0.3,0-0.5,0.2c-0.4,0.4-0.7,0.8-1.4,0.9c-0.4,0-3.9,1.7-4.2,1.6
					c-0.7,0-1.3,0.3-1.9,0.6c-0.7,0.3-1.4,1.2-1.8,0.8c-0.2-0.2-0.4-0.3-0.7-0.3c-0.5,0-0.9,0.1-1.3,0.3c-0.4,0.2-0.7,0.4-1.1,0.4
					c-0.5-0.1-1.3,0.4-1.4,0.5c-0.2,0.1-1.4,0.9-1.9,1c-0.4,0.1-2.9,0.9-3.3,0.5c-0.1-0.1-0.3-0.1-0.4-0.1c-0.7,0.1-1.3,0.6-2,0.2
					c-0.1-0.1-0.3,0.1-0.5,0.2c-0.4,0.2-1.3-0.1-1.4-0.1c-1.4,0.3-2.8,0.5-4.1,0.8c-1.7,0.4-3.4,0.6-5.1,0.5c-2.1,0-4.3,0-6.4-0.1
					c-2.1,0-4.4-0.3-6.5-0.6c-2.9-0.4-8.3-1.6-11.2-2.2c-0.1,0-0.3,0.2-0.3,0.3c0,0.1,0.4,0.4,0.5,0.5c0.7,0.3,3.7,1.4,4.3,1.7
					c0.3,0.1,0.4,0.2,0.3,0.5c-0.8,0.3-2.6-0.2-3.1-0.3c-0.1,0-0.2,0.1-0.2,0.1c0,0.1,0.9,0.6,0.9,0.7c0.5,0.1,2.1,1.5,2.7,1.6
					c0,0,0.4,0.2,0.7,0.2c0.5,0.2,1.2,0.2,1.7,0.4c0.9,0.4,1.8,0.9,2.7,1.2c0.6,0.2,1.3,0.4,1.9,0.7c1.1,0.5,2.1,1,3.2,1.3
					c1,0.3,1.9,0.7,2.8,0.9c2.3,0.4,4.7,1.7,7,1.8c1.1,0.4,1.6,0.4,2.8,0.9c0.1,0.1,0.8,0.2,0.9,0.2c2.6,0.2,5,0.6,7.5,1.1
					c2.1,0.4,4.6,0.4,6.7,0.6c2.2,0.3,4,0.3,6.2,0.7c2.2,0.4,5.4-0.1,7.6,0.3c2.3,0.4,4.6-0.1,6.9,0.1c0.2,0,0.4,0,0.5,0
					c1.3,0,2.5-0.1,3.8-0.1c0.4,0,0.9,0,1.4,0.1c2.3,0.3,4.6-1.1,6.9-1.1c0.2,0,0.5,0,0.7-0.1c0.7-0.3,1.4-0.3,2.1-0.4
					c1.9-0.1,3.1-0.9,5-1c3.1-0.2,4.7-1.1,7.7-1.9c0.8-0.2,1.7-0.4,2.5-0.6c1.5-0.3,3-0.6,4.4-0.9c1.5-0.4,3-0.8,4.5-1.3
					c1.5-0.5,3-1.2,4.5-1.9c0.5-0.2,0.9-0.3,1.4-0.5c1.8-0.7,3.5-1.5,5.3-2.2c1.9-0.7,3.7-1.4,5.5-2.4c0.3-0.2,0.7-0.4,1.1-0.4
					c1-0.2,2-0.7,2.8-1.3c0.5-0.4,1.1-0.7,1.6-0.9c0.7-0.3,1.3-0.6,1.9-1c0.2-0.1,0.5-0.3,0.6-0.5c0.3-0.4,0.6-0.7,1.1-0.6
					c0.3,0,0.4-0.1,0.5-0.4c0-0.1,0.1-0.3,0.2-0.3c0.7-0.3,1.2-0.9,1.9-1.3c1.5-0.8,4.1-2.2,5.5-3.2c2.5-1.9,4.1-2.7,6.5-4.6
					c1.3-1.1,2.7-2,3.9-3.1c0.7-0.6,1.5-1.2,2.2-1.8c0.3-0.3,0.5-0.5,0.8-0.7c0.2-0.1,0.5-0.3,0.7-0.4c1.5-1.7,3.4-2.9,4.9-4.7
					c0.6-0.7,1.4-1.3,2.1-1.9c0.6-0.6,1.2-1.2,1.7-1.9c1.1-1.3,2.5-2.5,3.6-3.9c0.3-0.3,0.5-0.8,0.8-1.1c1.1-1,2.4-2.3,3.2-3.4
					c1-1.3,1.7-2.1,2.6-3.5c0.7-1,1.6-1.9,1.9-3.1c0-0.1,0.1-0.3,0.2-0.3c0.7-0.5,1-1.3,1.4-2c0.5-1.1,1.9-1.8,2.2-3
					c0.9-1,1.3-2.2,2.1-3.3c0.6-0.8,0.7-1.2,1.2-2c0.5-0.8,1.3-1.4,1.7-2.2c0.5-1.1,1.1-2.5,1.8-3.5c0.6-0.9,0.8-1.9,1.6-2.6
					c0.1-0.1,0.1-0.3,0.1-0.4c0-0.6,0.4-1.1,0.6-1.6c0.6-1.2,0.9-2.4,1.6-3.6c0.4-0.7,0.8-1.5,1.1-2.3c0.1-0.2,0.2-0.4,0.2-0.6
					c0-0.2,0-0.4,0.1-0.7c0.8-1.5,1.8-3.1,2.4-4.7c0.3-0.7,0.8-2.4,0.8-2.5c0.6-1.2,1.1-2.4,1.5-3.6c0.2-0.5-0.3-1.1-0.3-1.7
					c0-0.3,0.1-0.5,0.2-0.8c0.2-0.4,0.8-2.3,0.8-2.5c0.1-0.8,0.5-0.9,0.2-1.8c-0.3-0.8-0.3-1.7,0.6-2.2c0.2-0.1,0.8-1,0.9-1.4
					c0.4-1.3,0.2-2.2,0.6-3.6c0.2-0.6,0.3-1.1,0.1-1.8c-0.1-0.2,0-0.4,0.1-0.7c0.6-1.5-0.3-3-0.2-4.6c0.1-1.4-0.1-2.9,0.4-4.3
					c0.1-0.2,0-0.4,0-0.7c0-0.4,0-0.8,0-1.2c0.1-1.7,0.1-3.4,0.2-5c0.1-1.3,0.7-2.5,0.7-3.8c0-1.6,0-3.3-0.1-4.9
					c-0.1-1.1-0.2-2.1,0.2-3.1C439.9,215.3,440,215,439.7,214.8z M397,248.1c0.2,0.3,0.2,0.7,0.1,0.9c0,0,0,0.1,0,0.1c0,0,0,0,0,0
					c0.1-0.1,0.1-0.1,0.3-0.2c0,0-0.1-0.1-0.1-0.1c-0.3-0.7-0.2-1.3,0.2-1.9c0.3-0.4,0.6-0.8,0.8-1.2c0-0.1,0.1-0.1,0.1-0.2
					c-0.4-1.4,0.1-2.6,0.7-3.5c0.1-0.1,0.2-0.3,0.3-0.4l0.1-0.1c0,0,0-0.1,0-0.1c-0.3-0.1-0.5-0.4-0.7-0.7c-0.4-0.9-0.3-1.8,0.1-2.4
					c0.3-0.4,0.4-0.6,0.4-0.8c0-0.7,0.6-1.1,0.9-1.1c0,0,0,0,0,0c-0.3-0.2-0.4-0.5-0.4-0.8c0-0.1,0-0.2,0-0.4
					c-0.1-0.4-0.1-0.9,0.2-1.5c0.1-0.2,0.2-0.5,0.3-0.7c0-0.2,0-0.4,0-0.6c0-0.5,0-1.1,0.5-1.8c0.7-1,1-1.8,0.9-2.7
					c-0.1-0.6,0.2-1.2,0.5-1.7c0.1-0.2,0.2-0.4,0.3-0.6c0.1-0.4,0.2-0.8,0.3-1.1c0.1-0.7,0.8-1,1.5-1c0.2,0,0.3,0,0.4,0.1
					c0.6,0.2,0.9,0.7,0.8,1.4c-0.1,0.9-0.2,1.7-0.4,2.6c0,0.3-0.1,0.6-0.1,0.9c-0.1,0.9-0.3,1.9-0.3,2.9c0,0.4-0.1,0.8-0.2,1.1
					c-0.1,0.2-0.1,0.3-0.1,0.5c-0.1,1-0.9,1.2-1.2,1.2c-0.2,0.5-0.4,0.9-0.7,1.3c-0.1,0.2-0.2,0.3-0.3,0.4c0.2-0.1,0.4-0.1,0.5-0.1
					c0.3,0,0.6,0.1,0.9,0.3c0.3,0.2,0.5,0.4,0.5,0.7c0.1,0.3,0,0.5-0.2,0.8c-0.2,0.3-0.4,0.4-0.6,0.4c-0.2,0.2-0.5,0.4-0.9,0.4
					c-0.1,0-0.3,0-0.4-0.1c0,0,0,0,0,0c0,0,0,0,0.1,0c0.5,0,0.8,0.2,1.1,0.4c0.2,0.2,0.4,0.5,0.3,1.1l0,0.3c0,0.2-0.1,0.4-0.1,0.6
					c-0.2,0.4-0.5,0.6-0.8,0.7c0,0.1,0,0.1,0,0.2c0.1,0.4,0.4,1.2-0.4,1.8c0,0,0,0,0,0c0,0,0,0.1,0,0.2c-0.1,0.3-0.3,0.7-0.7,1
					c0.1,0.8-0.3,1.4-0.7,1.7c0.1,1.2-0.5,2.2-1,3c-0.2,0.3-0.5,0.5-0.8,0.6c0.1,0.2,0.1,0.3,0.1,0.5c0,0.3-0.1,0.6-0.2,0.9
					c-0.1,0.4-0.4,0.6-0.8,0.7c-0.1,0-0.1,0-0.2,0c-0.2,0-0.5-0.1-0.6-0.2l-0.1-0.1c-0.1-0.1-0.3-0.3-0.4-0.6
					c-0.1-0.2-0.1-0.3-0.1-0.5c-0.2,0.1-0.5,0.2-0.6,0.2c0,0-0.3,0-0.3,0c-0.3,0-0.6-0.1-0.8-0.4c-0.3-0.3-0.2-0.7-0.2-0.8
					c0-0.3,0.1-0.5,0.1-0.7c0.2-0.6,0.7-0.9,1.2-0.9C396.6,247.7,396.8,247.9,397,248.1z M393.9,239.8c0-0.3,0-0.5,0.1-0.7
					c0.1-0.5,0.6-0.8,1.1-0.8c0.6,0,1.1,0.4,1.1,0.9c0.1,0.5-0.1,0.9-0.4,1.3c0,0.3,0,0.7-0.1,1.1c-0.2,0.5-0.6,0.9-1.2,0.9h0
					c-0.4,0-0.6-0.2-0.9-0.4c-0.2-0.3-0.4-0.7-0.3-1.1C393.4,240.5,393.6,240.1,393.9,239.8z M386.4,259.7l0.1-0.2
					c0.2-0.4,0.2-0.5,0.2-0.6c-0.2-0.6,0-1.3,0.6-1.6c0.3-0.1,0.4-0.4,0.6-1l0.1-0.4c0.8-1.9,1.5-3.4,2.2-4.9c0.5-1,0.8-1.8,1.1-2.6
					c0.3-0.8,0.6-1.7,1-2.4c0.1-0.3,0.2-0.5,0.3-0.8c0.1-0.2,0.2-0.5,0.7-0.7c0.2-0.1,0.3-0.1,0.5-0.1c0.4,0,0.7,0.2,1,0.5
					c0,0,0.1,0.1,0.1,0.1c0.1,0.3,0.1,0.6,0,0.9c-0.1,0.2-0.2,0.4-0.2,0.7c-0.1,0.3-0.1,0.6-0.3,1c-0.1,0.3-0.2,0.5-0.3,0.8
					l-0.4,1.2c-0.2,0.7-0.5,1.5-0.9,2.2c-0.3,0.5-0.5,1-0.5,1.7c0,0.6-0.3,1.1-0.5,1.4c-0.1,0.2-0.2,0.3-0.3,0.5
					c-0.3,0.5-0.5,0.8-0.6,1.1c0,0,0,0.1,0,0.2c0,0.1-0.1,0.2-0.1,0.3c-0.4,0.5-0.6,1-0.8,1.6c-0.2,0.5-0.3,1-0.6,1.4l-0.1,0.1
					c-0.2,0.3-0.4,0.7-0.6,1c0,0.1-0.1,0.1-0.1,0.2c-0.1,0.1-0.4,0.7-1.2,0.7c0,0-0.2,0-0.2,0c-0.3,0-0.6-0.2-0.7-0.5
					C386,261,386.1,260.5,386.4,259.7z M383.9,265.4c0.1-0.1,0.3-0.2,0.4-0.2c0.1-0.5,0.4-0.9,0.7-1.3c0,0,0.4-0.5,1-0.5
					c0,0,0.1,0,0.2,0c0.1,0,0.1,0,0.2,0c0.2,0.1,0.9,0.4,0.6,1.5c-0.2,0.7-0.6,1.2-1.1,1.6c-0.1,0.5-0.3,0.9-0.7,1.2
					c-0.2,0.1-0.4,0.2-0.6,0.2c-0.4,0-0.8-0.3-1-0.7C383.2,266.5,383.4,265.8,383.9,265.4z M258.9,348.2l-0.3,0.2
					c-0.2,0.1-0.3,0.1-0.4,0.2c-0.1,0-0.2,0.1-0.3,0.1c-0.1,0-0.2,0-0.2,0c-0.1,0-0.1,0-0.2,0l-0.1,0c-0.1,0-0.3-0.1-0.5-0.1
					c-0.3-0.1-0.6-0.4-0.7-0.6c0,0,0,0,0,0c0,0-0.1,0-0.1,0c0,0-0.2,0-0.2,0c0,0-0.1,0-0.1,0c-0.2-0.1-0.4-0.1-0.6-0.1
					c-0.5-0.1-1-0.1-1.5-0.4c-0.2-0.1-0.4-0.1-0.7-0.1c-0.3,0-0.5-0.1-0.7-0.1c-0.4-0.1-0.8-0.5-0.9-0.9c-0.1-0.3,0-0.7,0.3-0.9
					c0.3-0.2,0.4-0.3,0.7-0.4c0.1,0,0.2-0.1,0.4-0.1c0,0,0.4,0,0.4,0c0.3,0,0.4,0.1,0.5,0.1c0.8,0.1,2,0.3,3,1
					c0.2,0.1,0.3,0.3,0.4,0.5c0,0,0.1,0,0.1,0c0.1,0,0.2,0,0.2,0c0.3,0,0.5,0,0.8,0.1c0.3,0.1,0.5,0.3,0.7,0.4l0.2,0.2
					c0.2,0.2,0.3,0.4,0.2,0.6C259.3,347.9,259.1,348.1,258.9,348.2z M272.7,353.3c-0.3,0.1-0.6,0.2-0.9,0.2c0,0-0.1,0-0.2,0
					c0,0-0.1,0-0.1,0c-0.4-0.1-0.9-0.2-1.3-0.3l-0.1,0c-1.2-0.2-2.4-0.4-3.6-1.1c-0.2-0.1-0.4-0.1-0.7-0.2c-0.2,0-0.3-0.1-0.4-0.1
					c-1-0.3-1-0.9-1-1.3c0,0,0,0,0-0.1c-0.1,0.1-0.2,0.2-0.4,0.2c-0.4,0.2-0.8,0.2-1.2,0.2h-0.1c-0.3,0-0.6-0.2-0.7-0.3
					c0,0-0.2,0-0.3,0c-0.6,0-1.1-0.4-1.2-1c-0.1-0.5,0.1-0.9,0.5-1.1c0.2-0.1,0.4-0.2,0.6-0.2c0.3,0,0.6,0.1,0.8,0.2
					c0.2-0.2,0.5-0.3,0.8-0.3c0.1,0,0.3,0,0.5,0c0.4,0,0.7,0.1,1,0.3c0.2,0.2,0.3,0.5,0.3,0.7c0,0.2,0,0.3-0.1,0.4
					c0.2-0.2,0.5-0.3,0.7-0.3c0.4,0,0.7,0.1,1,0.1l0.7,0.1c-0.1,0-0.1,0-0.2-0.1c-0.4-0.2-0.6-0.5-0.6-0.8c0-0.3,0-0.8,0.5-1.1
					c0.5-0.3,1.2-0.7,2-0.7c0.1,0,0.2,0,0.3,0c0.3,0,0.6,0.2,0.7,0.3l0.2,0.1c0.2,0.1,0.3,0.3,0.3,0.4c0,0.2,0,0.4-0.1,0.5l-0.1,0.1
					c-0.1,0.2-0.3,0.5-0.6,0.7c-0.6,0.4-1.2,0.5-1.8,0.6h0.1c0.4,0,0.7,0.1,1.1,0.1c0.8,0.1,1.9,0.3,2.9,1.1c0,0,0,0,0,0
					c0,0,0.1,0,0.1,0c0.2,0,0.3,0.1,0.5,0.1c0.5,0.2,0.8,0.7,0.7,1.2C273.5,352.7,273.2,353.1,272.7,353.3z M331.3,324.9
					c-0.3,0.4-0.7,0.5-1,0.6c-0.2,0.4-0.6,0.6-0.7,0.7c-0.5,0.3-0.8,0.4-1.2,0.5l-0.4,0.2c-0.1,0.1-0.3,0.1-0.5,0.1
					c-0.1,0-0.1,0-0.2,0c0,0.1-0.1,0.3-0.2,0.4c-0.4,0.4-1,0.7-1.5,1c-0.1,0-0.3,0.1-0.4,0.1c-0.3,0-0.6-0.1-0.8-0.4
					c-0.2-0.2-0.3-0.6-0.3-0.9c0.1-0.3,0.3-0.6,0.6-0.8c0.4-0.2,0.8-0.4,1.2-0.6l0.3-0.1c0.1,0,0.2,0,0.2,0c0.1,0,0.1,0,0.2,0
					c0-0.1,0.1-0.2,0.2-0.3c0,0,0,0,0,0c0.6-0.8,1.3-1.3,2.2-1.3c0.3-0.5,0.8-0.8,1.3-0.8c0.2,0,0.5,0.1,0.7,0.2
					c0.3,0.1,0.5,0.4,0.5,0.7C331.7,324.3,331.6,324.7,331.3,324.9z M368.3,289.1c0.1-0.5,0.5-0.9,1.1-0.9c0,0,0.1,0,0.2,0
					c0-0.1,0.1-0.2,0.1-0.2c0.1-0.1,0.1-0.2,0.1-0.3c0.2-0.4,0.4-1,0.9-1.3c0.1-0.1,0.2-0.1,0.3-0.1c0,0,0,0,0,0c0.6,0,1,0.3,1,0.7
					c0,0.1,0.1,0.5-0.1,0.9c0,0-0.1,0.1-0.1,0.2c-0.1,0.3-0.3,0.8-0.8,1.2c-0.1,0.8-0.7,1.3-1.1,1.7l-0.2,0.2
					c-0.1,0.1-0.3,0.2-0.4,0.2c0,0-0.1,0-0.1,0c-0.4,0-1.1-0.3-1.1-0.9C368.2,289.9,368.2,289.5,368.3,289.1z M354.5,309.5
					c-0.1,0.1-0.3,0.3-0.4,0.4c-0.4,0.5-0.9,1-1.7,1.4l-0.1,0.1c0.1,0.3,0.1,0.6-0.1,0.9c-0.1,0.3-0.4,0.5-0.8,0.5
					c-0.1,0-0.3,0-0.6,0h-0.2c-0.3,0-0.3,0.1-0.4,0.2c-0.4,0.9-0.9,1.3-1.8,1.4c0,0,0,0,0,0.1c-0.1,0.1-0.2,0.3-0.3,0.4
					c-0.4,0.4-0.8,0.5-1.1,0.5c0,0-0.1,0-0.1,0c-0.2,0.2-0.5,0.4-0.9,0.4c0,0,0,0,0,0c0,0,0,0-0.1,0c-0.5,0-0.9-0.3-1-0.8
					c-0.1-0.4-0.2-1.2,0.9-1.6c0.7-0.7,1.4-1.3,2-1.9l0.3-0.2c0.5-0.4,1-0.9,1.4-1.3c0.3-0.3,0.7-0.6,1-0.9c0.6-0.5,1.3-1.1,1.8-1.7
					c0.3-0.3,0.6-0.7,0.9-0.9c0.5-0.5,0.8-0.8,1-1.3c0.1-0.3,0.4-0.7,0.9-0.7c0.1,0,0.2,0,0.5-0.4c0.1-0.2,0.3-0.4,0.5-0.6
					c0.3-0.2,0.5-0.5,0.8-0.7c0.8-0.7,1.6-1.4,2.1-2.3c0,0,0.1-0.1,0.1-0.1c0,0,0.1-0.1,0.1-0.1c0.3-0.2,0.6-0.5,0.9-0.7
					c0.3-0.3,0.7-0.6,1.1-0.9c0.1-0.4,0.3-0.7,0.5-1c0.4-0.4,0.7-0.8,0.8-1.3c0.1-0.6,0.6-0.9,1.2-1c0.1,0,0.3,0,0.6-0.5
					c0.3-0.6,0.8-1.1,1.4-1.7c0,0,0.1-0.1,0.1-0.1c0.1-0.2,0.5-0.6,1.1-0.7c0,0,0.1,0,0.1,0c0.3,0,0.6,0.1,0.7,0.3
					c0.3,0.5,0.5,1.1-0.2,1.8c-0.1,0.3-0.5,0.9-0.5,0.9c-0.1,0.2-0.3,0.4-0.4,0.7c-0.1,0.3-0.3,0.7-0.7,0.9
					c-0.3,0.2-0.5,0.5-0.7,0.8c-0.5,1.2-1.5,1.7-2.4,2c0,0.2,0,0.6-0.2,0.9c-0.2,0.2-0.4,0.4-0.7,0.4c0,0,0,0.1,0,0.2
					c-0.1,0.1-0.1,0.2-0.1,0.3c-0.6,1.3-1.6,2.6-2.9,3.8C357.4,306.7,355.9,308.1,354.5,309.5z M388.6,298.3
					c-0.2,0.1-0.3,0.1-0.5,0.1c-0.4,0-0.7-0.1-1-0.4c-0.3-0.4-0.5-0.8-0.5-1.4c0-0.9,1-2.4,1.6-2.6c0.3-0.1,0.5-0.2,0.7-0.2
					c0.5,0,1.3,0.2,1.6,1.7C390.6,296.5,389.3,298.1,388.6,298.3z M397.2,285.5c-0.1,0-0.1,0-0.2,0c-0.1,0.6-0.4,1.2-0.9,1.7
					c-0.4,1-1.2,1.7-1.9,2.3c-0.1,0.1-0.3,0.2-0.4,0.3c-0.1,0.6-0.4,1.1-1,1.5c0,0-0.1,0.1-0.1,0.1c0,0.3,0,0.5-0.1,0.7
					c-0.2,0.3-0.5,0.6-0.8,0.7c0,0-0.2,0-0.2,0c0,0-0.1,0-0.2,0c-0.1,0-0.1,0-0.1,0c0,0-0.1,0-0.2,0c0,0-0.2-0.1-0.3-0.1
					c-0.5-0.2-0.8-0.5-0.8-1c-0.1-0.4,0.1-0.8,0.4-1.1c0.2-0.2,0.5-0.3,0.7-0.4c0,0,0,0,0,0c0-0.1,0-0.3,0.1-0.4
					c0.2-0.4,0.4-0.8,0.8-1.2c0-0.3,0.2-0.7,0.6-1c0.5-0.3,0.7-0.8,1-1.5c0.1-0.2,0.2-0.4,0.2-0.5c0.2-0.5,0.6-0.9,0.9-1.3
					c0.2-0.2,0.5-0.4,0.8-0.5c0.1-0.3,0.3-0.5,0.6-0.6c0.2-0.1,0.4-0.1,0.6-0.1c0.3,0,0.6,0.1,0.9,0.3c0.2,0.2,0.5,0.5,0.5,0.9
					C398.1,284.9,397.7,285.4,397.2,285.5z M402.3,278.5c-0.1,0.3-0.2,0.5-0.3,0.6c-0.2,0.3-0.4,0.4-0.4,0.4
					c-0.1,0.1-0.4,0.2-0.6,0.2c0,0-0.1,0-0.1,0c-0.1,0-0.3,0-0.4-0.1c-0.2,0.2-0.5,0.3-0.7,0.3c-0.1,0-0.3,0-0.4-0.1
					c-0.6-0.2-0.8-0.7-0.7-1.3c0.1-0.7,0.3-1.7,1-2.5c0.2-0.3,0.5-0.5,0.8-0.7c0.2-0.2,0.5-0.2,0.6-0.2c0.3,0,0.6,0.1,0.8,0.3
					c0.4,0.4,0.3,0.9,0.2,1.2c0,0.1-0.1,0.3-0.2,0.4c0.1,0.1,0.2,0.2,0.3,0.3C402.6,277.7,402.4,278.2,402.3,278.5z M415.9,215.9
					c0.2,0,0.5,0.1,0.6,0.2c0,0,0.1,0.1,0.1,0.1c0.5,0.7,0.1,4.1-0.2,5.2c-0.1,0.3-0.3,0.5-0.5,0.6c-0.1,0.2-0.3,0.3-0.5,0.3
					c0,0-0.1,0-0.1,0c-0.2,0-0.3-0.1-0.4-0.2l-0.1-0.1c-0.1-0.1-0.3-0.2-0.4-0.5c-0.1-0.2-0.1-0.4-0.1-0.6l0.1-0.7
					c0.1-1.3,0.2-2.7,0.7-3.8C415.2,216.1,415.5,215.9,415.9,215.9z M413.1,190.7c-0.5,0-1-0.3-1.1-0.8l-0.2-0.4
					c-0.1-0.4-0.3-0.8-0.4-1.3c-0.1-0.5-0.1-1-0.1-1.5l0-0.4c0-0.4,0.3-0.7,0.4-0.8c0,0,0.1-0.1,0.1-0.1l0,0
					c0.1-0.1,0.3-0.2,0.5-0.2c0.1,0,0.3,0,0.4,0.1l0.1,0.1c0,0,0.3,0.2,0.4,0.4c0,0,0.1,0.1,0.1,0.2c0.1,0.2,0.3,0.5,0.3,0.9
					c0,0.8,0.3,1.5,0.5,2.1c0.1,0.3,0.1,0.7,0,0.9c-0.2,0.3-0.5,0.5-0.8,0.6C413.3,190.7,413.2,190.7,413.1,190.7z M415.2,223.2
					C415.2,223.2,415.2,223.2,415.2,223.2c0.2,0,0.4,0,0.5,0.1c0,0,0.1,0.1,0.2,0.1c0.2,0.1,0.6,0.4,0.6,0.9c0,0.7-0.3,1.3-1.1,1.6
					c-0.1,0-0.1,0-0.2,0.1c0,0-0.1,0-0.2,0c-0.6,0-1.1-0.7-1.1-1.2C413.7,223.7,414.5,223.2,415.2,223.2z M414.1,233.2
					c0-0.1,0-0.4,0-0.4c0-0.3,0.1-0.6,0.1-0.9c0.1-0.7,0.3-1.5,0.5-2.3c0.1-0.3,0.2-0.6,0.3-0.8c0.3-0.4,0.7-0.6,1-0.6
					c0,0,0.2,0,0.2,0c0.5,0.2,0.9,0.6,0.8,1.2l-0.1,0.4c-0.1,0.6-0.2,1.1-0.3,1.7l-0.1,0.3c-0.2,0.6-0.3,1.1-0.4,1.7
					c-0.1,0.4-0.5,1-1,1c0,0-0.1,0-0.1,0h0c-0.4,0-1-0.3-1-1.1C414.1,233.4,414.1,233.3,414.1,233.2z M415.3,250.1c0,0-0.2,0-0.2,0
					c-0.5-0.1-0.9-0.6-0.9-1.1c0.1-0.8,0.4-1.5,0.7-2.1c0.3-0.4,0.6-0.6,0.9-0.6c0.4,0.1,0.7,0.2,0.8,0.4c0.2,0.2,0.2,0.5,0.2,0.9
					c0,0,0,0.1,0,0.1c0,0.7-0.2,1.4-0.8,2C415.9,250,415.6,250.1,415.3,250.1z M421.3,287c0,0.2,0,0.4,0,0.5c0,0.1,0,0.3-0.1,0.5
					c-0.5,0.9-1.1,1.8-1.7,2.8l-0.4,0.6c-0.3,0.5-0.9,0.8-1.6,0.8c-0.2,0-0.4,0-0.5-0.1c-0.4-0.2-0.6-0.5-0.7-0.8
					c-0.1-0.4,0-0.8,0.1-1.1c0.9-1.4,1.6-2.5,2.3-3.4c0.7-1,1.1-1.3,1.6-1.3c0.3,0,0.6,0.2,0.8,0.4
					C421.4,286.1,421.4,286.5,421.3,287z M424,178.9c-0.2,0.5-0.7,0.7-1,0.8c-0.1,0-0.2,0.1-0.3,0.1c0,0-0.1,0.1-0.1,0.1
					c-0.1,0-0.2,0-0.3,0c-0.2,0-0.4-0.1-0.5-0.3l-0.1-0.1l-0.3-0.3c-0.3-0.4-0.7-0.7-0.9-1.2c-0.2-0.3-0.2-0.7,0-1.2
					c0.1-0.2,0.3-0.7,0.8-0.9c0.1,0,0.3-0.1,0.4-0.1c0.8,0,1.6,0.6,2,1.1C424,177.7,424.1,178.3,424,178.9z M438.2,217.2
					c0,0.3,0,0.6-0.2,1c-0.1,0.4-0.5,0.6-0.7,0.7c0,0-0.1,0.1-0.1,0.1l-0.1,0.1c-0.1,0.1-0.3,0.2-0.5,0.2c0,0-0.1,0-0.1,0
					c-0.2,0-0.4-0.1-0.5-0.3l-0.1-0.1c0.1,0.4,0.2,0.8,0.3,1.4c0.1,0.4,0.2,1.1,0.2,1.8c0.1,1,0.1,1.4,0.2,1.6c0,0.1,0,0.1,0,0.2
					l-0.1,3.4c0,0.6,0,1.2-0.1,1.8l-0.6,6.7l-0.9,6.1c-0.1,1.3-0.4,2.6-0.7,3.6l-0.3,1.2c-0.1,0.6-0.2,1.2-0.4,1.8
					c-0.2,1-0.4,2-0.7,3c-0.2,0.8-0.5,1.6-0.7,2.5c-0.2,0.7-0.4,1.5-0.7,2.3l-0.2,0.9c-0.1,0.3-0.3,0.6-0.4,0.9
					c-0.1,0.2-0.2,0.4-0.3,0.6c-0.2,1.1-0.6,2.5-1.3,2.9c-0.1,0.1-0.4,0.1-0.5,0.1c-0.2,0-0.6-0.2-0.7-0.4c-0.2-0.3-0.1-0.6,0-1
					l0.4-2c0-0.2,0.1-0.5,0.2-0.7c0.1-0.2,0.2-0.5,0.2-0.7c0-0.3,0.1-0.7,0.1-1c0.1-0.9,0.4-1.8,0.6-2.7c0.2-0.7,0.3-1.4,0.5-2.1
					c0.1-0.8,0.3-1.7,0.5-2.5c0.2-0.9,0.4-1.7,0.5-2.5l0.4-2.5c0.1-0.5,0.1-1,0.2-1.4c0-0.4,0.1-0.8,0.1-1.1
					c0.2-1.7,0.4-3.5,0.7-5.3l0-0.3c0.1-1.7,0.3-3.4,0.5-5.1c0-0.4,0-0.7-0.1-1.2c-0.1-0.5-0.1-1-0.1-1.5c0.1-1,0.2-1.9,0.3-2.9
					c0.1-1,0.2-2,0.4-2.9c0.1-0.5,0.1-1,0.2-1.5l0.1-1.4c0-0.9,0.1-1.1,0.2-1.2c0.1-0.2,0.4-0.3,0.6-0.3c0.3,0,0.5,0.1,0.6,0.4
					c0-0.5-0.1-1,0-1.6c0-0.4,0.2-0.7,0.4-1l0.1-0.2l0.1-0.3c0.1-0.2,0.3-0.4,0.6-0.4c0,0,0,0,0,0c0.2,0,0.4,0.1,0.6,0.3l0.2,0.2
					c0.1,0.1,0.1,0.1,0.1,0.2c0.2,0.2,0.3,0.4,0.4,0.7c0.1,0.3,0.1,0.6,0.1,0.9c0,0.1,0,0.2,0,0.3c0,0,0,0.1,0,0.1L438.2,217.2z
					 M387.4,274.5c0.1-0.2,0.2-0.3,0.3-0.5c0,0.1,0,0.2-0.1,0.3C387.6,274.4,387.5,274.5,387.4,274.5
					C387.4,274.5,387.4,274.5,387.4,274.5z M402,193.3c-0.2-0.4-1.1-0.9-1.1-1.2c0.6-0.3,0.3-0.9,0.3-1.4c0-0.4-0.1-0.9,0.1-1.3
					c0.3-0.7,0.1-1.4,0.1-2.1c0-0.1,0-0.3,0-0.4c0-1.3-0.1-1.8,0-1.6c0.3,0.4,0.4,1.1,0.5,1.6c0,1,0.4,1.7,0.2,2.7
					c0.1,1.8,0.6,4.3,0.4,6.1c0,0.2-0.1,0.3-0.2,0.5c0,0-0.1,0.1-0.1,0.1c-0.1,0-0.2,0-0.2-0.1c-0.2-0.3-0.3-0.6-0.1-0.9
					C402.5,194.5,402.3,193.9,402,193.3z M437.9,204.3c0.3,1.5,0,2.1,0,2.3c-0.1,0.4,0,0.9,0.1,1.4c0,0.1,0.1,0.7,0.2,1.3
					c0.5,2.9,0.9,3.2,1,3.3c0.2,0.2,0.8,0.2,0.9-0.3l0-0.1c0-0.1,0.1-0.8,0-0.9c0-0.1-1.1-7.7-1.6-8.2c0-0.1-0.1-0.1-0.2-0.1
					l-0.4,0.2l0,0.1C437.9,203.4,437.8,203.6,437.9,204.3L437.9,204.3z M401.7,184.5c0.3,0,0.4-0.5,0.4-0.9c0-0.2,0-0.4,0-0.6
					c0,0,0-1.2-0.2-1.6c-0.1-0.3-0.2-0.3-0.3-0.3l-0.1,0c-0.1,0-0.2,0.1-0.3,0.2c-0.1,0.4,0.1,0.8,0.1,1.1c0,0.4,0.1,0.8,0,1.2
					c0,0.1,0,0.1,0,0.2c-0.1,0.2-0.2,0.5,0.2,0.7C401.6,184.5,401.7,184.5,401.7,184.5z M399.8,185.4c-0.2,0-0.3,0.2-0.3,0.5
					c0,1,0.1,2,0.2,3c0,0,0,0.1,0,0.1c0,0.1-0.1,0.3,0,0.4c0.1,0.1,0.2,0.1,0.3,0.2h0c0.2,0,0.3-0.6,0.3-0.6c0-0.3-0.1-0.7-0.1-1.1
					l0-0.4l0-0.2h0V187c0-0.4,0-0.7,0-1.1C400.2,185.7,400.1,185.4,399.8,185.4z M401.6,178.5c-0.1,0.3,0,0.6,0,0.9
					c0,0.2,0.1,0.3,0.2,0.4c0,0,0.1,0.1,0.1,0.1l0.2,0.3l0.1-0.3c0-0.1,0.1-0.1,0.1-0.2c0.1-0.1,0.1-0.3,0.2-0.4c0-0.2,0-0.4,0-0.6
					c0-0.1,0-0.1,0-0.2l0-0.2c-0.4-2.6-1.6-2.6-0.8-0.2C401.6,178.2,401.6,178.4,401.6,178.5z M399,197.9c0,0.2,0.1,0.3,0.3,0.5
					c0.4,0.3,0.5,0.6,0.4,1.1c-0.1,0.2-0.1,0.5-0.1,0.7c0,0.1,0,0.3,0.1,0.3c0,0,0.1,0.1,0.3,0.1h0c0.1,0,0.3-0.1,0.4-0.3
					c0.4-1.4,0.6-2.8,0.7-4c0,0,0-0.1,0-0.1c0-0.1,0-0.2-0.1-0.3c-0.2-0.1-0.3-0.3-0.6-0.4c-0.2-0.1-0.3,0-0.4,0.1
					c-0.1,0.1-0.1,0.2-0.1,0.4c0,0.5-0.2,1-0.5,1.3C399.1,197.6,399,197.8,399,197.9z M401.9,173.1L401.9,173.1
					c0.3-0.1,0.3-0.2,0.3-0.6c0-0.2,0-0.4-0.1-0.7l0,0l-0.1-0.2c-0.2-0.3-0.4-0.5-0.6-0.5l0,0c-0.1,0-0.2,0.1-0.2,0.3
					C401.3,171.6,401.6,173.1,401.9,173.1z M405.2,174.8c0-0.2-0.1-0.4-0.2-0.7l-0.3-1.3c-0.5-0.8-1.5-1.1-2-0.4
					c0,0.9,0.5,1.2,0.8,1.8c0.1,0.3,0.3,0.5,0.4,0.8c0.1,0.3,0.2,0.5,0.3,0.7c0.5,0.9,1.2,2.8,1.5,2.5l-0.5-2.7L405.2,174.8z
					 M406.4,165c0.1,0.1,0.1,0.2,0.2,0.3c0.1,0.1,0.2,0.3,0.3,0.4c0.1,0.1,0.2,0.1,0.3,0.1c0.1,0,0.3-0.1,0.4-0.2
					c0.1-0.1,0.2-0.3,0-0.6c-0.2-0.2-0.3-0.4-0.5-0.6c-0.4-0.5-0.9-1-1.4-1.4c-0.1-0.1-0.2-0.2-0.3-0.4c-0.3-0.4-0.6-0.7-1.2-0.8
					h-0.1c-0.1,0-0.2,0.1-0.2,0.1c-0.1,0.2,0,0.3,1.1,1.6C405.6,164,406.1,164.6,406.4,165z M404.1,168c0.2,0.1,0.3,0.3,0.5,0.4
					c0.1,0.1,0.2,0.1,0.2,0.1c0.1,0,0.1,0,0.2-0.1c0.2-0.1,0.2-0.4,0.1-0.6c-0.1-0.2-0.3-0.4-0.5-0.5c-0.2-0.2-0.3-0.3-0.4-0.5
					c-0.2-0.5-0.4-0.8-0.7-1.1c-0.2-0.2-0.5-0.2-0.7,0c-0.2,0.2-0.1,0.4,0,0.5C403.1,167,403.6,167.5,404.1,168z M398.9,196.8
					l0.1,0.1l0.1-0.1c0,0,0,0,0,0c0.1-0.1,0.2-0.1,0.2-0.2c0.1-0.6,0.1-1.1,0.2-1.5c0-0.1,0-0.3-0.1-0.4l0-0.1
					c0-0.1-0.1-0.2-0.2-0.2c-0.1,0-0.3,0.1-0.3,0.2c0,0.2,0,0.4-0.1,0.6c-0.1,0.3-0.1,0.6-0.1,0.9c0,0,0,0.1,0,0.1
					c0,0.1,0,0.2,0,0.3C398.7,196.6,398.8,196.7,398.9,196.8C398.8,196.8,398.9,196.8,398.9,196.8z M441.6,231c0-1.7,0-3.5-0.1-4.2
					c0,0,0-0.9-0.1-1.2c-0.2-0.5-1,1.2-1,1.2c-0.1,0.3-0.2,0.7-0.2,1c-0.2,0.7,0,1.5-0.1,2.2c0,0.3,0,0.7-0.1,1.2
					c-0.1,1.9,0,6.5,0.1,6.6c0.1,0,0.6-0.4,0.6-0.4c0.6-1,0.8-2.4,0.8-3C441.6,233.6,441.6,232.3,441.6,231z M398,207.2L398,207.2
					c0.5,0,0.8-0.5,0.9-1.4c0.1-0.6,0-1.1-0.1-1.6c0-0.2-0.1-0.4-0.1-0.7c0-0.1-0.1-0.4-0.3-0.4c-0.1,0-0.2,0.1-0.2,0.1
					c-0.1,0.1-0.2,0.2-0.2,0.4c-0.1,0.5-0.2,1-0.3,1.6l-0.1,0.6c-0.1,0.4,0,0.9,0.2,1.1C397.8,207.1,397.9,207.2,398,207.2z
					 M397.2,211.5c0.1,0,0.2,0,0.2,0c0.3,0,0.4-0.2,0.4-0.3c0-0.3,0.1-0.3,0.4-0.3l0.1,0c0.2,0,0.4,0,0.5,0c0.4-0.2,0.3-0.6,0.3-0.8
					c0-0.3-0.2-0.4-0.4-0.4c-0.1,0-0.1,0-0.2,0c-0.1,0-0.1,0.1-0.2,0.1c-0.1,0-0.2,0.1-0.3,0.1c-0.1,0-0.1,0-0.1,0
					c-0.1,0-0.3,0-0.3-0.4c0,0,0-0.2,0.1-0.3c0.1-0.4,0.1-0.5,0.1-0.6c0-0.1-0.1-0.2-0.2-0.2c0,0,0,0-0.1,0l-0.1,0l-0.1,0
					c0,0-0.1,0.1-0.2,0.1c-0.3,0.6-0.5,1.9-0.4,2.6C396.9,211.4,397.1,211.5,397.2,211.5z M396.1,219.9c0.7-0.1,0.6-1.8,1.3-2.4
					c0.2-0.2,0.3-0.6,0.4-0.9c0-0.7,0-1.4-0.3-2.1l-0.1-0.2l-0.2,0.2C396.2,215.4,394.8,218.2,396.1,219.9
					C396,219.9,396.1,219.9,396.1,219.9z"/>
				<path d="M211.7,156.2c-0.3,0-0.6-0.1-0.9-0.4c-0.2-0.2-0.2-0.4-0.2-0.6c0.4-1.7,1.8-3.1,3.4-4.5c0.5-0.5,1.1-1,1.6-1.6
					c0.1-0.1,0.3-0.2,0.5-0.2c0.2,0,0.4,0.1,0.5,0.2c0.2,0.2,0.3,0.6,0.1,0.9C216.7,150.1,213.8,156.2,211.7,156.2z M436.7,186.7
					c-0.3-0.1-1.3-1.2-1.3-1.8c0-0.2-0.2-0.4-0.3-0.5c-0.8-0.8-1.1-2-1.8-2.9c-0.2-0.2-0.3-0.5-0.5-0.8c-0.5-1.1-1-2.3-1.9-3.3
					c-0.2-0.2-1.6-2.6-1.7-2.9c-0.4-1-0.7-1.7-1.5-2.4c-0.2-0.2-0.9-0.7-1-0.9c-0.5-1.1-1.1-1.8-2-2.5c-0.6-0.4-1-0.9-1.5-1.4
					c-0.6-0.7-1.2-1.6-1.9-2.3c-0.7-0.7-1.7-2.5-2.3-3.1c-1.4-1.4-2.5-1.7-3.9-3.1c-0.4-0.4-0.8-0.8-1.2-1.1c-1-0.8-2-1.7-3-2.5
					c-0.4-0.4-0.8-0.9-1.4-1c0,0-0.1,0-0.1-0.1c-0.7-1.1-2-1.4-2.7-2.4c-0.4-0.5-1.1-0.8-1.7-1.1c-0.3-0.1-0.6-0.2-0.8-0.4
					c-0.2-0.3-0.5-0.5-0.7-0.8c-0.7-1-1.4-0.5-2.6-0.8c-0.4-0.1-0.9-0.2-1.2-0.6c-0.1-0.1-0.3-0.2-0.4-0.3c-0.4-0.1-0.6-0.3-0.7-0.6
					c-0.1-0.3-0.3-0.5-0.4-0.7c-0.1-0.3-0.4-0.4-0.7-0.3c-0.4,0.1-0.7,0.1-0.9-0.4c-0.1-0.2-0.2-0.3-0.4-0.3c-0.4,0-0.7-0.2-1-0.4
					c-0.2-0.1-0.4-0.3-0.2-0.5c0.3-0.3,0.1-0.5-0.1-0.8c-0.3-0.3-0.6-0.6-1-0.5c-0.3,0.1-0.5,0.1-0.8,0.2c-0.4,0.2-0.7,0.1-0.9-0.3
					c-0.2-0.5-0.8-0.5-1.2-0.6c-0.3-0.1-0.7-0.2-0.9-0.5c-0.2-0.4-0.6-0.5-1-0.7c-0.9-0.3-1.7-0.7-2.5-1.3c-0.8-0.6-1.8-0.9-2.7-1.2
					c-0.2-0.1-0.5-0.1-0.6-0.2c-0.5-0.3-1-0.7-1.4-1c-0.5-0.3-1.1-0.1-1.5-0.5c-0.4-0.3-0.8-0.5-1.4-0.5c-0.2,0-0.3-0.1-0.5-0.2
					c-0.5-0.3-1-0.5-1.5-0.7c-0.8-0.3-3.4-2.5-4.3-2.2c-0.2,0.1-0.4,0-0.5-0.1c-0.9-0.3-2.1-1.2-2.9-1.6c-1-0.5-2-0.9-3-1.2
					c-0.7-0.3-1.3-0.8-2-1.2c-0.6-0.3-1.3-0.4-1.9-0.5c-0.8-0.2-1.6-0.4-2.4-0.6c-0.1,0-0.3-0.1-0.4-0.2c-0.6-0.5-1.4-0.7-2.2-1
					c-0.9-0.3-1.8-0.5-2.7-0.7c-0.8-0.2-1.5-0.4-2.2-0.7c-1.4-0.5-2.9-0.9-4.3-1.2c-0.9-0.2-1.9-0.4-2.8-0.6c-2.3-0.6-4.6-1-6.9-1.3
					c-1.4-0.2-2.8-0.6-4.3-0.9c-0.2,0-0.4-0.2-0.7-0.2c-1.4-0.1-2.9-0.4-4.3-0.3c-0.5,0-1.1,0-1.6-0.2c-0.2-0.1-0.4-0.1-0.7-0.1
					c-2.3-0.1-4.1-0.7-6.4-0.9c-1.2-0.1-2.3-0.2-3.5-0.2c-1.2,0-2.3-0.3-3.5,0.2c-0.2,0.1-0.5,0-0.7,0c-0.6,0.1-1.2-0.6-1.8-0.1
					c-0.2,0.2-0.5,0.1-0.8,0.1c-0.4,0-0.7-0.4-1.1-0.4c-0.2,0-0.4,0.1-0.5,0.1c-1.1-0.4-2.2,0.1-3.3,0c-0.2,0-0.5,0-0.7,0
					c-0.8,0.2-1.4-0.7-2.3-0.3c-0.7,0.4-1.6,0.2-2.4,0.2c-0.8,0-1.6,0-2.4,0.2c-0.7,0.2-1.4,0.3-2.1,0c-0.2-0.1-0.5,0-0.8-0.1
					c-0.1,0-0.2,0-0.3,0c-0.6,0.3-1-0.3-1.6-0.1c-0.5,0.1-1,0.3-1.5,0.2c-0.8-0.2-1.6-0.2-2.4,0c-0.3,0.1-0.6-0.1-0.9-0.3
					c-0.3-0.2-0.6-0.3-0.8,0.1c-0.1,0.4-0.5,0.5-0.8,0.5c-1.1,0-2.2,0.1-3.3,0.3c-0.2,0-0.5,0-0.7-0.1c-1-0.3-1.9-0.1-2.7,0.4
					c-0.2,0.1-0.4,0.3-0.6,0.1c-0.4-0.2-0.7-0.2-0.9,0.2c-0.2,0.2-0.5,0.3-0.8,0.2c-0.4-0.1-0.8-0.2-1.2-0.3
					c-0.3-0.1-0.4-0.4-0.2-0.6c0.1-0.1-1.8,0.8-2,1.2c-0.1,0.3-0.3,0.4-0.6,0.4c-0.7,0-1.3,0.1-1.8,0.7c-0.3,0.4-0.8,0.5-1.3,0.5
					c-0.5,0-0.9,0-1.2-0.5c-0.1-0.2-0.3-0.2-0.5-0.1c-0.5,0.1-1,0.2-1.2,0.8c-0.1,0.3-0.4,0.4-0.7,0.6c-0.6,0.2-1.6,0.4-1.8,0.5
					c-0.4,0.1-0.8,0.2-1.2,0.3c-0.2,0-0.4,0.1-0.6,0.2c-0.6,0.6-1.4,0.7-2.1,0.6c-0.7-0.1-1.3,0.1-1.8,0.4c-0.7,0.4-1.5,0.5-2.2,0.7
					c-0.7,0.2-1.3,0-1.9-0.5c-0.2-0.2-2,0.4-2.1,0.2c0-0.1-0.2-0.1-0.4-0.1c-0.2,0-0.3,0.1-0.4,0.3c-0.1-0.1-0.8-0.5-1-0.3
					c-0.2,0.3-2.4,1.9-2.8,1.8c-0.4-0.1-0.9-0.2-1.3-0.2c-0.2,0-0.3,0.1-0.4,0.3c0,0.2-0.5,0.7-1.1,0.7c-0.8,0-1.4,0.2-1.7,1.1
					c-0.2,0.5-0.5,0.5-1,0.2c-0.3-0.1-0.5-0.3-0.5-0.6c-0.1-0.2-0.2-0.2-0.3-0.1c-0.3,0.2-0.9,0.7-1,0.5c-0.2-0.5-3.9,2.4-4.4,2.1
					c-0.3-0.2-2.9,2.2-3.1,2.5c-0.2,0.2-0.3,0.4-0.7,0.4c-0.6-0.1-0.9,0.2-1.3,0.5c-0.6,0.5-1.7,1.7-1.8,1.8c-1,0.9-2.1,1.6-3.4,1.7
					c-0.6,0.1-1.1,0.1-1.3,0.7c-0.1,0.2-0.3,0.3-0.5,0.4c-0.5,0.2-0.9,0.5-1.3,0.8c-0.3,0.3-0.6,0.4-0.9,0c-0.1-0.2-0.5-0.1-0.6,0
					c-0.5,0.6-1.3,0.8-1.7,1.5c-0.3,0.5-0.8,0.9-1.4,1c-0.4,0.1-3.4,3.5-3.5,4c-0.1,0.3-0.4,0.4-0.7,0.6c-0.5,0.2-1.2,0.3-1.3,1
					c0,0.1-0.2,0.2-0.3,0.2c-0.6,0.2-1,0.6-1.2,1.2c-0.2,0.5-0.7,0.5-1,0.9c-1.2,1.2-2.6,2.3-3.7,3.6c0,0-0.2,0.1-0.2,0
					c-0.1,0-0.1-0.2-0.1-0.2c0-0.1,0.1-0.3,0.1-0.4c0.6-0.8,1.1-1.7,1.7-2.5c0.3-0.5,0.6-1,1-1.5c0.2-0.3,0.4-0.6,0.1-1
					c-0.2-0.2,0-0.5,0.2-0.8c0.2-0.3,0.3-0.6,0.3-0.9c0,0,0-0.1,0-0.1c-0.1,0-0.2-0.1-0.2-0.1c-0.4,0.2-1.7,1.8-2,1.8
					c-0.1,0,0-0.5,0-0.5c0.4-0.5,0.9-2.2,1.7-2.5c0.1-0.1,0.2-0.3,0.4-0.4c0.3-0.3,0.7-0.8,1-1.2c0.2-0.2,0.4-0.5,0.5-0.8
					c0.5-0.9,1-1.8,1.6-2.6c0.2-0.3,0.5-0.6,0.5-1c0-0.2-0.1-0.3-0.3-0.4c-0.1-0.1-0.3,0-0.3,0.1c-0.2,0.6-0.6,1-1.1,1.3
					c-0.7,0.6-1.2,1.3-1.5,2.1c-0.2,0.5-0.3,0.9-0.8,1.2c-0.3,0.2-1.1,1.2-1.6,1.8c-0.1,0.2-0.2,0.4-0.4,0.2c-0.1-0.1-0.1-0.2,0-0.3
					c0.1-0.3-0.3-0.5-0.3-0.8c0-0.2-0.3-0.2-0.4-0.1c-0.1,0.2-0.2,0.3-0.3,0.5c-0.3,0.3-1.2,1.3-1.5,1c-0.5-0.6-0.4-1.5-0.1-2.3
					c0.2-0.3,0-1,0-1.4c0-0.5,0.1-1.1,0.2-1.6c0.2-1.1,0.7-2.2,0.5-3.3c-0.1-0.4,0.8-1.3,0.9-1.7c0.5-1.5,2-4.4,2.4-5.9
					c0.1-0.3,0.2-0.6,0.2-0.9c0.1-0.5,0-0.9-0.2-0.8c-0.3,0.1-0.5,0.3-0.6,0.6c-0.2,0.5-0.4,1-0.6,1.5c-0.1,0.2-0.1,0.3-0.2,0.5
					c-0.1,0.2-0.2,0.3-0.4,0.2c-0.1-0.1-0.2-0.2-0.2-0.3c0.1-0.8,0.6-1.9,1-2.5c0.3-0.5,0.7-0.9,0.5-1.6c-0.1-0.2,0.4-0.9,0.5-1.2
					c0.7-1.7,2.3-4.1,3.1-5.8c1-2.1,2.1-4.1,3.1-6.2c1-2,2.3-3.8,3.9-5.4c0.8-0.8,1.7-1.3,2.1-2.3c0.2-0.5,0.5-0.8,0.9-1.2
					c2-2.3,4-4.7,6.1-7c1.2-1.5,2.7-2.6,4.2-3.9c1-0.9,2.1-1.4,3-2.4c0.1-0.1,0.1-0.3,0.2-0.3c2.1-1.4,3.9-2.9,6-4.3
					c1.1-0.7,2.2-1.4,3.2-2.3c0.8-0.6,1.6-1.2,2.5-1.7c1.7-1,3.3-1.5,5.1-2.4c1.6-0.8,3.3-1.6,4.9-2.3c0.8-0.4,1.6-0.7,2.4-1
					c0.9-0.4,1.7-0.7,2.7-0.9c0.8-0.1,1.5-0.5,2.3-0.7c1.1-0.3,2.3-0.6,3.4-0.9c1.3-0.4,2.6-0.5,3.9-0.9c0.2-0.1,0.5-0.2,0.7-0.1
					c0.8,0.2,1.4,0,2.1-0.3c0.7-0.3,1.5-0.4,2.3-0.4c0.8,0,1.6-0.2,2.4-0.4c0.9-0.2,1.8-0.3,2.7-0.4c1.7-0.2,3.2-0.8,4.9-1
					c0.6-0.1,1.2-0.1,1.8-0.1c0.7,0,1.5-0.1,2.2-0.1c0.8,0,1.7,0,2.5,0c0.2,0,5.8-0.2,6-0.2c2.3-0.4,3.5-0.1,5.8,0.3
					c0.1,0,0.3,0.1,0.4,0c2.3-0.1,0.2,0.4,2.5,0.5c0.2,0,0.4-0.4,0.5-0.5c1.4-0.4,2.9-0.2,4.3,0c0.2,0,0.4,0,0.5,0.1
					c1,0.8,2.2,0.5,3.4,0.8c0.5,0.1,1,0.1,1.5,0.2c0.5,0.1,0.9,0.7,1.4,0.1c0.8,0.1,1.5,0.2,2.3,0.4c0.5,0.1,0.9,0.3,1.4,0.3
					c3.3,0.2,6.5,0.8,9.8,1.5c0.8,0.2,1.7,0.5,2.5,0.7c2.4,0.7,4.7,1.3,7.1,1.9c0.6,0.2,1.1,0.6,1.8,0.4c0.3-0.1,0.5,0.5,0.9,0.6
					c0.6,0.2,1.1,0.5,1.6,0.6c1.4,0.4,2.7,1.1,4,1.6c1.4,0.5,2.7,0.7,4.1,1.3c2.3,0.9,0.3,1.7,2.3,0.9c0.3-0.1,0.5,0.1,0.8,0.2
					c1.1,0.5,2.1,1,3.1,1.7c2,1.3,5.9,3,7.9,4.4c0.8,0.6,1.6,1.1,2.5,1.7c1.9,1.2,3.9,2.4,5.8,3.6c1.8,1.2,3.8,3.7,5.7,4.8
					c1.2,0.7,2,1.5,3.3,1.8c0.2,0.1,0.4,0.2,0.6,0.4c0.6,0.5,1.2,0.9,1.8,1.5c1,1.1,2.2,1.9,3.3,2.8c1.2,0.9,2.2,1.9,3.2,2.9
					c1.7,1.7,3.5,3.3,5.1,5.1c0.3,0.3,0.6,0.7,1,0.9c0.7,0.4,1.3,1,1.8,1.6c0.4,0.5,0.9,0.9,1.3,1.3c0.9,0.8,1.8,1.7,2.5,2.6
					c1.1,1.4,2.2,2.7,3.4,3.9c1.6,1.5,2.9,3.3,4.1,5.1c0.3,0.4,0.6,0.9,0.9,1.3c2.1,2.7,3.8,5.6,5.3,8.7c0.8,1.8,1.8,3.4,2.7,5.2
					c0.7,1.5,1.5,2.9,2.1,4.4c0.4,1,0.9,2,1.4,3c0.9,1.6,1.5,3.4,2.2,5.1c1,2.2,2,4.5,3,6.7c0.3,0.6,0.5,1.2,0.8,1.8
					c1.1,2.6,1.8,5.3,2.5,8.1c0,0.1,0,0.1-0.1,0.2c-0.1-0.1-0.1-0.1-0.2-0.2c-0.4-1.1-0.9-2.3-1.3-3.4c-0.9-2.6-2.2-5-3.3-7.5
					c0-0.1-0.1-0.2-0.1-0.2c-0.1-0.1-0.2-0.1-0.4-0.1c0,0-0.1,0.1-0.1,0.2c-0.1,0.3,0,0.6,0.1,0.9c0.3,0.7,0.6,1.4,0.5,2.2
					c0.6,1.1,0.7,2.4,1.2,3.6c0.8,1.7,2.4,5.8,3.2,7.5c0.1,0.2,0.1,0.4,0.1,0.5c0,0.1-0.1,0.2-0.2,0.2c-0.1,0-0.2,0-0.2,0
					c-0.2-0.4-0.5-0.9-0.7-1.3c-0.2-0.7-0.7-1.1-1.3-1.5c-0.3-0.2-0.4-0.3-0.2-0.6c0.1-0.3-1.2-3.1-1.3-3.4c-0.3-0.8-0.7-1.6-1-2.4
					c-0.2-0.4,0-0.6-0.4-0.5c-0.3,0-0.5-0.2-0.6-0.4c-0.3-0.4-0.3-1.1-0.7-1.4c-0.3-0.3-0.8-0.6-1.2-0.8c-0.3-0.1-0.4-0.5-0.7-0.7
					l-0.1-0.3c-0.1-0.6-0.5-1-0.9-1.4c-0.2-0.2-0.3-0.3-0.5-0.5l-0.1-0.1c-0.2-0.3-0.4-0.6-0.8-0.7l-0.2-0.1l-0.1,0.2
					c-0.3,0.5,0,0.9,0.2,1.1c0.1,0.1,0.1,0.2,0.1,0.2c0.1,0.2,0.1,0.4,0.3,0.5c0.1,0.1,0.3,0.3,0.4,0.4c0.3,0.4,0.6,0.8,1.3,0.8h0.1
					c0,0.3,0.1,0.5,0.2,0.7c0.6,1,1.3,2,1.9,3c0.1,0.2,0.3,0.4,0.4,0.7c0.6,1.4,1.6,2.5,2.1,4c0,0.2,1.1,2.7,1.2,2.8
					c0.6,0.6,1,1.3,1.2,2.1c0.1,0.3,0.2,0.5,0.3,0.7c0.9,1.3,1.4,2.9,2,4.3c0.2,0.5,0.4,1,0.5,1.6
					C437,185.4,436.9,186.8,436.7,186.7z M425.7,158.9c0,0.5,0.1,1.1,0.3,1.6c0.2,0.5,0.7,0.7,0.9,0.8c0,0,0.1,0,0.1,0.1l0.4,0.2
					c0.1,0.1,0.2,0.1,0.3,0.1c0.1,0,0.2,0,0.3-0.1c0.2-0.1,0.4-0.3,0.4-0.5l0.1-0.4l0.1-0.2l0.1-0.2c0.1-0.3,0.2-0.6,0.2-1
					c0-1-0.5-1.7-1.5-1.9l-0.2,0c0,0-0.1,0-0.1,0c-0.2,0-0.3,0.1-0.5,0.2l-0.1,0.1l-0.1,0.1C426.2,158,425.7,158.3,425.7,158.9z
					 M296.5,75.1c0,0.6,0.4,1.1,0.7,1.3c0.3,0.2,0.7,0.4,1.2,0.4c0,0,0.1,0,0.1,0c1.4-0.1,2.8-0.3,4.2-0.5l0.5-0.1
					c0.3,0,0.5-0.2,0.6-0.2l0.5-0.3c0.2-0.1,0.3-0.3,0.3-0.6c0-0.2-0.1-0.5-0.3-0.6l-0.5-0.3c-0.1-0.1-0.4-0.3-0.8-0.4
					c-0.7-0.1-1.4-0.1-2.1-0.2l-0.4,0l-0.8-0.1c-0.1,0-0.2,0-0.3,0l-0.5,0c-0.4,0-0.9,0-1.5,0.3C296.9,74,296.5,74.6,296.5,75.1z
					 M276.9,77c0,0.2,0.1,0.4,0.3,0.5l0.8,0.4c0,0,0.1,0,0.1,0.1c0,0,0.2,0.1,0.3,0.1c0.2,0,0.3,0,0.5,0c0.8,0,1.4-0.3,2-0.5
					c0.5-0.2,0.7-0.7,0.8-1l0-0.1c0-0.2,0-0.4-0.1-0.5l-0.1-0.1c-0.3-0.5-0.8-0.6-0.9-0.6c-0.3-0.1-0.5-0.1-0.7-0.1
					c-0.8,0-1.5,0.2-2.2,0.7c-0.1,0.1-0.1,0.1-0.3,0.2l-0.3,0.3C277,76.5,276.9,76.8,276.9,77z M255.1,83.3l0,0.2
					c0,0.2,0.1,0.3,0.2,0.4l0.1,0.1c0.2,0.3,0.6,0.4,1,0.4c0.5,0,1.1-0.2,1.8-0.3c0.2,0,0.3-0.1,0.4-0.1c2.5-0.5,4.2-0.9,6.4-2.1
					l1-0.3c1.1-0.3,2.1-0.6,3.1-1l0.2-0.1c0.7-0.2,1.5-0.5,1.8-1.2c0.2,0.1,0.3,0.1,0.6,0.1c0,0,0.1,0,0.1,0l0.3-0.1
					c0.2-0.1,0.4-0.2,0.6-0.3c0,0,0,0.1,0,0.1c0.1,1.2,0.8,1.5,1.4,1.5c0,0,0.1,0,0.2,0c0.9,0,1.4-0.7,1.6-1.1
					c0.3-0.4,0.7-1,0.7-1.8c0.3-1-0.3-1.4-0.6-1.5c-0.2-0.1-0.4-0.2-0.7-0.2c-0.2,0-0.4,0-0.6,0.1c-0.3,0.1-0.6,0.2-1,0.3
					c0,0-0.1,0-0.1,0.1c-0.1-0.2-0.3-0.3-0.4-0.4c-0.2-0.1-0.5-0.2-0.9-0.2l-0.2,0c-0.1,0-0.4,0.1-0.4,0.2c-0.4,0.3-0.8,0.7-1.3,1.1
					c-0.1,0.1-0.2,0.2-0.2,0.3c-0.2-0.1-0.5-0.2-0.9-0.2c-0.7,0-1.5,0.3-1.7,0.4c-0.6,0.3-1.3,0.5-2.1,0.7c-0.8,0.2-1.5,0.5-2.3,0.8
					c-0.9,0.2-1.8,0.5-2.6,0.7c-0.7,0.3-1.4,0.5-2.2,0.6c-0.9,0.2-1.8,0.6-2.3,0.8C255.9,81.8,255.2,82.4,255.1,83.3z M243.7,110.6
					c-0.3,0-0.6,0.1-0.8,0.2c0,0-0.1,0-0.1,0c0,0-0.1,0-0.2,0c-0.6,0-1.1,0.3-1.5,0.7c-0.4,0.5-0.5,1.1-0.2,1.7
					c0.2,0.5,0.7,0.8,1.3,0.8c0.2,0,0.4-0.1,0.6-0.2c0.3-0.1,0.5-0.3,0.7-0.4l0,0c0.5,0,0.9-0.1,1.4-0.3c0.5-0.2,1-0.4,1.5-0.5
					l0.8-0.3c0.4-0.1,0.8-0.3,1.1-0.4c1-0.3,2-0.6,3-1.1c0.5-0.2,0.9-0.4,1.4-0.4c1.1-0.1,2-0.5,3-0.9c0.7-0.3,1.4-0.6,2.1-0.7
					c0.8-0.2,1.3-1,1.2-1.9c-0.1-0.7-0.6-1.2-1.3-1.3l0.1,0c0.9-0.1,1.9-0.2,2.8-0.8c0.1-0.1,0.2-0.1,0.4-0.1
					c0.4-0.1,0.8-0.2,1.3-0.6c0.2-0.1,0.9-0.2,1.1-0.2c1.1,0,2.1-0.4,3-0.7l1.9-0.6c1-0.3,1.9-0.6,2.9-0.9c0.2-0.1,0.5-0.1,0.9-0.2
					c0.5-0.1,1-0.2,1.6-0.4c1.1-0.4,2.2-0.7,3.3-1.1l1.2-0.3c0.8-0.2,1.5-0.4,2.2-0.4c0.2,0,0.3,0,0.5,0c0,0,0.1,0,0.1,0
					c0.2,0,0.5,0.5-0.6,0.6l-0.1,0c-2,0.3-4,0.9-6.6,1.8c-0.8,0.3-1.5,0.5-2.3,0.6c-1,0.1-2.1,0.5-3.4,1.3c-0.5,0.3-1,0.6-1.5,0.6
					c-1,0.1-1.7,0.7-2.1,1.1c-0.3,0.3-0.5,0.8-0.4,1.2c0.1,0.5,0.4,1,0.9,1.2c0.3,0.1,0.6,0.2,0.8,0.2c0.3,0,0.5-0.1,0.7-0.2
					c0.3-0.2,0.7-0.3,1.2-0.3c0.4-0.1,0.9-0.2,1.4-0.4c0.6-0.2,1.2-0.4,1.9-0.5c0.7-0.2,1.5-0.3,2.3-0.6c0.3,0.2,0.7,0.3,1.1,0.3
					c0.2,0,0.4,0,0.6-0.1c0.1,0,0.3,0,0.4,0c0.6,0,1.2-0.2,1.7-0.5c0,0,0.1,0,0.2,0c0.8-0.1,1.7-0.2,2.5-0.2l0.7-0.1
					c0.7-0.1,1.3-0.1,2-0.1c1.2,0,1.8-0.7,2.3-1.3c0.3-0.3,0.5-0.8,0.4-1.2c0.5-0.2,1-0.3,1.5-0.4c0.5-0.1,0.9-0.3,1.4-0.5
					c0.2-0.1,0.3-0.2,0.4-0.2c0.4-0.1,1.2-0.4,1.7-1.2c0,0,0.2-0.1,0.2-0.1c0.2-0.1,0.3-0.1,0.5-0.2c0.3-0.1,0.6-0.2,1-0.3
					c0.2-0.1,0.6-0.3,0.8-0.6c0.3,0.1,0.6,0.2,0.9,0.2c0.2,0,0.4,0,0.5,0c1.5-0.3,3.1-0.5,4.6-0.8l1.2-0.2c0.5-0.1,1-0.4,1.3-0.8
					c0-0.1,0.1-0.1,0.1-0.2c0,0,0,0,0,0c0.8,0.3,1.3,0.4,1.9,0.4c0.7,0,1.3-0.2,2.1-0.7c0.3-0.2,0.7-0.3,1.2-0.3c0.9,0,1.9,0,3-0.6
					c0.3,0.1,0.6,0.2,0.9,0.2c0.1,0,0.3,0,0.5,0c0.3,0,0.5-0.1,0.8-0.1h0c0.4,0,0.7,0,1.1,0c1.1,0,2.2-0.1,3.4-0.2l0.6-0.1
					c0.4,0,0.9-0.2,1.4-0.4c0.4-0.2,0.7-0.4,0.8-0.8c0.1,0.1,0.2,0.2,0.4,0.2c0.6,0.2,1.2,0.4,1.7,0.5c1,0.2,2.1,0.4,3.3,0.4
					c0.5,0,1,0.1,1.4,0.2l0.2,0c0.2,0,0.4,0.1,0.6,0.1c0,0,0.1,0,0.1,0c0,0,0.2,0,0.2,0c0.2,0,0.4,0,0.6-0.1
					c0.4-0.1,0.7-0.4,0.9-0.7c0.2-0.3,0.2-0.6,0.2-1h0c0.3,0,0.7-0.2,1-0.5c0.2-0.2,0.2-0.5,0.2-0.6c0,0,0-0.2,0-0.2
					c0-0.1-0.1-0.3-0.1-0.4c0-0.1-0.2-0.3-0.4-0.5l-0.2-0.1c-0.5-0.3-1-0.6-1.7-0.6c-0.1,0-0.2,0-0.4,0c-0.2,0-0.5,0.2-0.7,0.4
					c-0.4-0.4-0.8-0.8-1.1-1.1c-0.3-0.2-0.6-0.4-1-0.4c-0.2,0-0.4,0-0.6,0.1c-0.1,0-0.2,0-0.2,0.1c-0.3-0.1-0.6-0.2-0.9-0.2
					l-0.3-0.1l-0.3-0.1c-0.5-0.1-1.1-0.2-1.6-0.4c-0.1,0-0.3,0-0.4,0c-0.4,0-0.8,0.1-1.1,0.3c-0.4,0.2-0.7,0.5-0.8,1
					c0,0.1,0,0.1,0,0.2c-0.2-0.3-0.5-0.6-0.9-0.7c0,0-0.2,0-0.2,0c-0.5,0-0.9,0.2-1.2,0.6c-0.1,0.1-0.2,0.2-0.3,0.4
					c-0.3-0.1-0.7-0.1-1-0.1l-0.2,0c-0.2,0-0.4,0-0.6,0h-0.2c-0.5,0-1,0-1.5-0.1c-1-0.3-2.2-0.4-3.5-0.4l-1.1,0
					c-0.9,0-1.9,0-2.9,0.1c0.1-0.4,0-0.8-0.3-1.1c-0.3-0.3-0.7-0.5-1.1-0.5c-0.4,0-0.7,0.1-0.9,0.2c-0.7,0.3-0.9,1-0.8,1.5
					c0,0.1,0,0.1,0,0.2l0,0c-0.8,0.1-1.5,0.3-2.3,0.4c-0.3,0.1-0.5,0.1-0.8,0.1c-0.2,0-0.4,0-0.7,0.1c-0.1,0-0.1,0-0.2,0
					c-0.3-0.4-0.8-0.7-1.3-0.7c-0.4,0-0.8,0.2-1,0.3c-0.4,0.2-0.8,0.3-1.3,0.3c-0.1,0-0.5,0-0.6,0c-0.5,0-0.9,0.1-1.3,0.2
					c-0.4,0.1-0.6,0.1-0.9,0.1c0,0-0.2,0-0.2,0c-0.2,0-0.3,0.1-0.5,0.2l-0.1,0.1c-0.2,0.2-0.5,0.3-0.9,0.3c-0.3,0-0.6,0-1-0.1
					c-0.1,0-0.3,0-0.4,0c-0.3,0-0.6,0-0.9,0.1l-0.3,0.1c-0.7,0.2-1.5,0.5-2.2,0.7l-0.4,0.1c0,0-0.1,0-0.2,0c-0.3,0-0.7,0-1-0.1
					c-0.3,0-0.6-0.1-0.9-0.1c0,0,0,0,0,0c-1,0.1-1.9,0.4-2.8,0.7l-0.5,0.2c-0.5,0.2-1.1,0.4-1.6,0.4c-1.1,0.2-1.9,0.4-2.8,0.8
					c-0.2,0.1-0.3,0.1-0.3,0.1h0c-0.2-0.1-0.5-0.2-0.8-0.2c-0.4,0-0.8,0.2-1.1,0.4c-0.3,0.3-0.6,0.4-1.2,0.5
					c-0.4,0.1-0.8,0.2-1.2,0.4c-0.4,0.2-0.8,0.4-1.2,0.5c-1,0.5-1.6,0.8-2.4,0.8c-0.3,0-0.5,0-0.8-0.1c-0.2-0.1-0.5-0.1-0.7-0.1
					c-0.8,0-1.3,0.5-1.7,1.1c-0.3-0.1-0.6-0.2-0.8-0.2c-0.7,0-1.3,0.5-1.6,0.9c-0.4,0.5-1,0.8-1.5,0.9c-1.3,0.2-2.5,0.9-3.6,1.9
					c-0.1,0.1-0.2,0.2-0.3,0.3c-0.1,0.1-0.2,0.2-0.2,0.3c-0.8,0.3-1.4,0.7-1.9,1.3c0-0.1-0.1-0.3-0.2-0.4c0,0-0.1-0.1-0.1-0.1
					l-0.1-0.3c0-0.1-0.1-0.2-0.3-0.3c0.2-0.1,0.4-0.1,0.6-0.2c0.4-0.1,0.7-0.3,0.9-0.4c0,0,0.1-0.1,0.2-0.1c0.5-0.3,0.5-0.8,0.5-1
					c0-0.2,0.4-0.2,0.8-0.2c0.3,0,0.5-0.1,0.8-0.2c0.1-0.1,0.2-0.2,0.3-0.3c0.7-0.1,1.2-0.4,1.7-0.7c0.2-0.1,0.4-0.3,0.6-0.3
					c0.6-0.2,0.7-0.8,0.8-1l0.1-0.2c0.1-0.3,0-0.6-0.3-0.8l-0.1-0.1c-0.2-0.2-0.5-0.3-0.9-0.3l0,0c-0.9,0-1.7,0.4-2.4,0.7
					c-0.4,0.2-0.7,0.4-1.1,0.4l-0.1,0.1c-0.2,0.1-0.3,0.2-0.4,0.3l-0.1,0.1c-0.2,0.4-0.3,1.2-0.4,1.1c-0.1,0-0.2-0.1-0.3-0.1
					l-0.3-0.1c-0.1,0-0.1,0-0.2,0c-0.1,0-0.2,0-0.3,0c-0.2,0.1-0.5,0.1-0.7,0.1c-0.7,0.1-1.6,0.2-2.3,0.7c-0.7,0.4-1.3,0.7-2.1,1.1
					l-0.8,0.4c-0.3,0.1-0.6,0.3-1.1,0.6c-0.4,0.3-0.6,0.7-0.5,1.3l0.1,0.2c0.1,0.3,0.3,0.5,0.5,0.5l0.2,0c0.1,0,0.2,0.1,0.4,0.1
					c0.3,0.1,0.7,0.2,1.1,0.2c0.2,0,0.5,0,0.7-0.1l0.5-0.2c0.3-0.1,0.6-0.2,0.9-0.4c-0.1,0.2-0.2,0.3-0.3,0.5l-0.1,0.2
					c-0.1,0.2-0.5,0.8-0.2,1.5c0.1,0.3,0.4,0.6,0.7,0.8c-0.7,0.4-1.3,0.7-2.1,0.8c-0.7,0-1.6,0.2-2.2,1
					C245.3,110.4,244.8,110.5,243.7,110.6z M312,99.6l-0.4-0.3c0,0-0.2-0.1-0.4-0.2c-0.6-0.2-1.3-0.2-2.1-0.2c-1,0-2.2,0.1-3.7,0.4
					c-0.9,0.2-1.6,1-1.7,1.9l-0.1,0.4c0,0.2,0,0.4,0.2,0.6c0.1,0.1,0.3,0.2,0.5,0.2c0,0,0.4,0,0.4,0c1.6-0.1,3.1-0.4,4.6-0.6l0.2,0
					c0.8-0.1,1.4-0.4,2.1-0.8l0.4-0.3c0.2-0.1,0.3-0.4,0.3-0.6C312.3,99.9,312.2,99.7,312,99.6z M230.5,100.3c0,0.1,0,0.1,0.1,0.2
					l0.1,0.2c0.1,0.2,0.4,0.4,0.6,0.4c0,0,0.1,0,0.1,0l0.4-0.1c0.2,0,0.4,0,0.6-0.1c0.7-0.3,1.4-0.7,2-1.5c0.1-0.2,0.5-0.6,0.4-1.3
					c-0.1-0.4-0.3-0.7-0.6-0.9c-0.2-0.2-0.5-0.2-0.8-0.2c-0.3,0-0.7,0.1-0.9,0.3c-0.6,0.5-1.3,1-1.8,1.5
					C230.5,98.9,230.3,99.2,230.5,100.3z M225.3,106.6c0.1,0.1,0.4,0.2,0.5,0.2c0,0,0.2,0,0.2,0c0.3,0,0.8-0.1,1.3-0.6l0.5-0.5
					c0.8-0.8,1.6-1.7,2.4-2.5c0.3-0.3,0.4-0.7,0.6-1.1c0.2-0.5,0-1.1-0.3-1.4c-0.2-0.3-0.6-0.4-1.1-0.4h0c-0.3,0-0.7,0.2-1,0.4
					c-1.2,1.1-2.3,2.5-3.3,3.9c-0.2,0.3-0.3,0.6-0.3,0.8C224.7,105.8,224.9,106.2,225.3,106.6z M213.7,146.1c0,0,0-0.2,0-0.2
					c-0.2-0.6-0.7-0.9-1.3-0.9c-0.2,0-0.5,0.1-0.7,0.2c-0.4,0.2-0.7,0.5-0.9,0.8c-0.3,0.5-0.2,1-0.2,1.1c0.1,0.5,0.4,0.8,0.6,0.8
					c0.2,0.1,0.4,0.1,0.6,0.1c0.7,0,1.3-0.6,1.3-0.7C213.4,147.3,213.8,146.8,213.7,146.1z M216.7,128.3c0-0.1,0-0.2,0-0.3
					c-0.1-0.6-0.5-0.9-1.1-1.1c-0.2-0.1-0.4-0.1-0.6-0.1c-0.6,0-1.1,0.2-1.5,0.6c-0.1,0.1-0.1,0.1-0.2,0.2c-0.4,0.3-1,0.8-1,1.7
					c0,0.6-0.1,0.9-0.3,1.2c-0.4,0.5-0.2,1.2,0.1,1.5c0.2,0.3,0.6,0.4,1,0.4c0.2,0,0.4-0.1,0.6-0.1c0.2-0.1,0.3-0.2,0.5-0.4
					c0.8-1,1.5-1.9,2.3-2.9C216.7,128.8,216.7,128.4,216.7,128.3z M221.1,132.4c-0.1-1.1-0.8-1.2-1.2-1.3c-0.4,0-0.9,0.2-1.1,0.7
					c-0.3,0.6-0.6,1.1-0.9,1.7c-0.2,0.4-0.1,0.8,0,0.9l0.1,0.3c0.1,0.3,0.4,0.5,0.7,0.5c0.1,0,0.1,0,0.2,0l0.3-0.1
					c0.1,0,0.5-0.1,0.8-0.4c0.3-0.3,0.7-0.8,1-1.3C221.2,133.1,221.1,132.7,221.1,132.4z M223.6,122.8c0.1-0.1,0.2-0.1,0.3-0.2
					l0.3-0.2c1.3-1,2.7-2,3.7-3.5c0.8-1.1,1.9-2,3.1-2.9c0.2-0.1,0.5-0.3,0.7-0.6c0.4-0.5,0.8-1,1.4-1.5l0.1-0.1
					c0.4-0.4,0.8-0.8,1.2-1.2c0.2-0.1,0.3-0.1,0.5-0.3c0.1-0.1,0.1-0.1,0.2-0.2l0.2,0c0.8-0.3,1.9-0.6,2.5-1.9
					c0-0.1,0.2-0.2,0.4-0.3c0.2-0.2,0.5-0.3,0.7-0.6c0.9-0.3,1.3-0.9,1.6-1.5c0,0,0.1,0,0.1-0.1c0.1-0.1,0.2-0.2,0.2-0.2
					c0.5-0.2,0.9-0.5,1.2-0.7c0.2-0.2,0.4-0.3,0.6-0.4c0.4-0.2,0.6-0.6,0.7-0.8c0.3-0.6,0.1-1.3-0.4-1.7c-0.3-0.2-0.6-0.3-0.9-0.3
					c-0.4,0-0.8,0.2-1,0.5c-0.3,0.4-0.6,0.6-1.1,1l-0.4,0.3c0,0-0.1,0.1-0.1,0.1c-0.4,0-0.7,0.1-1,0.4l-1.5,1.2
					c-0.3-0.3-0.8-0.5-1.2-0.5c-0.6,0-1.2,0.3-1.5,0.9c-0.2,0.4-0.5,1-0.2,1.7c0,0.1-0.2,0.3-0.2,0.3l-0.1,0.2c0,0-0.1,0.1-0.2,0.2
					c-0.1,0.1-0.2,0.2-0.3,0.3l-0.2,0.3c-0.4,0.1-0.8,0.3-1.1,0.6c-0.2,0.1-0.3,0.3-0.5,0.4c0.3-0.6,0.1-1.1-0.1-1.4
					c-0.3-0.4-0.7-0.7-1.1-0.7c-0.5,0-0.9,0.3-1.1,0.5c-0.1,0.1-0.3,0.2-0.4,0.3c-0.3,0.2-0.5,0.4-0.8,0.6c-0.2,0.2-0.3,0.3-0.5,0.4
					l-0.2,0.2c-0.7,0.5-1.5,1.2-1.9,2.2c-1,0.3-1.8,1-2.3,2.1c-0.2,0.3-0.3,0.9,0,1.4c0.1,0.1,0.2,0.2,0.3,0.3
					c-0.1,0.1-0.3,0.3-0.4,0.5l-0.2,0.3c-0.5,0.7-1,1.4-1.6,1.9c-0.6,0.4-0.9,1-1.2,1.4c-0.3,0.5-0.5,0.8-0.8,1
					c-0.5,0.3-0.8,0.8-1,1.2l-0.1,0.1l-0.1,0.2c-0.5,0.8-0.3,1.9,0.6,2.5c0.3,0.2,0.5,0.3,0.8,0.3c0.3,0,0.8-0.1,1.2-0.6
					c0.4-0.4,0.9-0.8,1.4-1.2C222.2,124.4,223,123.8,223.6,122.8z M226.5,127.9c0.4-0.3,0.7-0.8,0.8-1.2c0,0,0.1,0,0.1,0
					c0.5-0.1,1.1-0.5,1.1-1.1c0,0,0-0.1,0-0.1l0,0c0.6,0,1.1-0.3,1.6-0.9c0.1-0.1,0.1-0.2,0.2-0.2c0.4-0.1,0.8-0.3,1-0.7
					c0.2-0.3,0.5-0.6,0.7-0.9l0.6-0.7c0.3-0.3,0.3-0.8,0.2-1.2c-0.1-0.4-0.4-0.7-0.9-0.8c-0.2,0-0.4-0.1-0.6-0.1l-0.1,0
					c-0.2-0.1-0.3-0.1-0.5-0.1c-0.6,0-1.1,0.4-1.3,0.7c0,0-2.3,2.4-2.6,2.7c-0.1,0.1-0.2,0.3-0.3,0.4c-0.3,0.3-0.5,0.6-0.5,1
					c-0.1,0-0.2,0-0.3,0.1c-0.6,0.3-0.9,0.8-1.1,1.1l-0.1,0.1c-0.4,0.5-0.5,1-0.4,1.5c-0.1,0-0.1,0-0.2,0l0,0c-0.5,0-1,0.3-1.3,0.8
					c-0.3,0.5-0.4,1-0.3,1.5c0.1,0.4,0.4,0.6,0.6,0.7l0.2,0.1c0.1,0.1,0.2,0.1,0.3,0.1c0,0,0.1,0,0.1,0l0.1,0c0.1,0,0.4,0,0.6-0.2
					c0.7-0.4,1.1-1.1,0.9-2c0,0,0,0,0,0c0.1,0,0.1,0,0.2,0C225.6,128.4,226.1,128.3,226.5,127.9z M302.1,105.8c0,0,0.5,0.1,0.5,0.1
					c0.1,0,0.2,0,0.3,0c0.3-0.1,0.5-0.2,0.9-0.3c0.3-0.1,0.6-0.2,0.8-0.2c0.2,0.3,0.4,0.4,0.8,0.5c0.2,0,0.3,0.1,0.5,0.1
					c0.2,0,0.3,0,0.5,0c0.2,0,0.7-0.1,1.1-0.2l0.2,0c0.3,0,0.6-0.1,0.7-0.1c0.4,0,1-0.1,1.5-0.4c0.3-0.2,0.7-0.6,0.7-1.1
					c0-0.6-0.5-1.1-0.9-1.2c-0.4-0.1-0.7-0.2-1.2-0.2c-0.5,0-1,0.1-1.4,0.4c0,0-0.1,0-0.1-0.1c-0.1,0-0.2-0.1-0.3-0.1
					c-0.2-0.1-0.5-0.1-0.7-0.1c-0.1,0-0.3,0-0.4,0c-0.1,0-0.2,0-0.2,0c-0.1,0-0.2,0-0.2,0c-0.6-0.2-1.2-0.3-1.8-0.3
					c-0.6,0-1.3,0.1-1.9,0.3c-0.4,0.2-0.8,0.3-1.1,0.3c-0.2,0-0.4,0-0.6-0.1c-0.2-0.1-0.4-0.1-0.7-0.1c-0.6,0-1.1,0.2-1.5,0.4
					c-0.8,0.3-1.5,0.6-2.2,0.6c-0.1,0-0.3,0-0.4-0.1c-0.1,0-0.3,0-0.4,0c-0.6,0-1.1,0.2-1.5,0.5c-0.1,0-0.2,0.1-0.3,0.1l-0.5,0.2
					c-0.2,0.1-0.4,0.3-0.4,0.5c0,0.2,0.1,0.5,0.3,0.6l0.4,0.3c0.4,0.3,0.9,0.5,1.4,0.5c0.3,0,0.7-0.1,1-0.2c1-0.2,2-0.3,3.2-0.4
					c0.9-0.1,1.8-0.2,2.7-0.3c0.1,0,0.2,0,0.3,0c0.2,0,0.3,0,0.5,0C301.8,105.8,302,105.8,302.1,105.8z M330.6,104.4
					c0.1,0,0.1,0,0.2,0c0.8-0.1,1.8-0.6,1.7-2.3c0-0.1,0-0.3,0-0.4c0.1-1.5-0.4-2.1-1.9-2.3c-0.3,0-0.6,0-0.8,0l-0.3,0
					c-0.1,0-0.1,0-0.2,0c-0.1,0-0.2,0-0.3,0c-0.7,0-1.1,0.3-1.2,0.6c-0.1,0.1-0.1,0.2-0.2,0.4c-0.1-0.1-0.3-0.2-0.5-0.3
					c-0.2-0.1-0.5-0.3-0.9-0.3c-0.3,0-0.7,0.1-1.1,0.6c-0.3-0.1-0.6-0.3-0.9-0.3c-0.1,0-0.2,0-0.3,0c-0.2,0-0.5,0-0.8,0
					c0,0-0.1,0-0.1,0c-0.3-0.2-0.6-0.4-1-0.4c-0.1,0-0.1,0-0.2,0c-0.2,0-0.4-0.1-0.6-0.1c-0.6,0-1.2,0.3-1.5,0.9
					c-0.5,0.2-0.8,0.5-1.1,0.8c-0.2,0.3-0.4,0.8-0.2,1.2c0.2,0.5,0.6,0.8,1.1,0.9c0.6,0,1.1,0.1,1.8,0.1l0.4,0l0.1,0
					c0.4,0.1,0.9,0.2,1.2,0.3c0.3,0.4,0.7,0.7,1.2,0.7c0.3,0,0.6-0.1,0.9-0.4c0,0,0,0,0,0c0.2,0.1,0.3,0.1,0.5,0.1
					c0.2,0,0.4,0,0.6-0.1c0.1,0,0.2,0.1,0.2,0.1c-0.3,0.1-0.5,0.3-0.8,0.5c-0.3,0.4-0.4,0.8-0.3,1.3c0.5,1.1,2.6,1.4,3.5,1.5
					c0.1,0,1.2,0,1.2,0c0.2,0,0.3,0,0.5,0c0.3,0,0.6-0.2,0.8-0.3l0.4-0.2c0.2-0.1,0.3-0.3,0.4-0.5c0.1-0.2,0-0.4-0.1-0.6l-0.2-0.2
					l-0.1-0.2c-0.1-0.2-0.3-0.5-0.7-0.7l-0.4-0.2C330.6,104.4,330.6,104.4,330.6,104.4z M336.4,98.9c0.2,0.2,0.4,0.3,0.7,0.4
					l0.6,0.2c0.6,0.2,1.1,0.4,1.7,0.6c0.1,0.1,0.2,0.3,0.4,0.3c0.3,0.1,0.5,0.2,0.7,0.3c0.7,0.2,1.5,0.3,2.3,0.5
					c0.1,0,0.3,0.1,0.4,0.1c0.2,0,0.4,0,0.5-0.1c0.2,0.2,0.5,0.4,0.8,0.5c0.2,0,0.4,0,0.5,0l0.4,0.1c0.1,0,0.2,0,0.3,0h0
					c0,0,0,0,0,0c0.2,0,0.7,0,1-0.4c0.2-0.2,0.3-0.6,0.3-0.8c0-0.6-0.5-1.1-0.9-1.2c-0.4-0.2-0.8-0.3-1.2-0.4c0,0,0,0,0,0
					c0.6-0.1,1-0.6,1.1-1.2c0.1-0.5,0-1-0.3-1.4c-0.2-0.3-0.6-0.5-0.9-0.6l-2.1-0.3c-0.1,0-0.2-0.1-0.3-0.1h-0.3c-0.1,0-0.1,0-0.2,0
					c-0.1,0-0.2,0-0.2,0c-0.1,0-0.1-0.1-0.2-0.1c-0.6-0.3-1.2-0.4-1.7-0.5c-0.2,0-0.4-0.1-0.6-0.1c-1.2-0.4-2.4-0.7-3.6-1.1
					l-2.5-0.8c-0.3-0.1-0.6-0.2-0.9-0.2c-0.6,0-1,0.3-1.2,0.5c-0.2,0.3-0.3,0.6-0.3,1c0.2,0.9,0.9,1.2,1.2,1.3
					c0.6,0.3,1,0.5,1.3,0.5c0.7,0.1,1.4,0.4,2.2,0.7c0.2,0.1,0.5,0.2,0.7,0.3c-0.3,0.3-0.5,0.7-0.5,1.1
					C335.8,98.1,336,98.5,336.4,98.9z M344.2,108.3c0-0.5-0.5-1.3-1.2-1.3c-0.2,0-0.3,0-0.3-0.1c-0.1-0.5-0.4-0.8-0.7-1
					c-0.2-0.1-0.5-0.2-0.8-0.2c-0.4,0-0.7,0.1-0.9,0.3c-0.1,0.1-0.2,0.2-0.3,0.3c-0.1-0.1-0.1-0.2-0.3-0.3c-0.3-0.2-0.9-0.7-1.7-0.7
					c-0.1,0-0.3,0-0.4,0c-0.3,0.1-0.8,0.3-1,0.9c-0.2,0.5,0,1,0.4,1.4c0.1,0.1,0.2,0.2,0.4,0.3c-0.4,0.2-0.6,0.7-0.6,1.1
					c0,0.4,0.2,0.9,0.6,1.2c0.4,0.2,0.8,0.3,1.2,0.3c0.6,0,1.2-0.3,1.7-0.8c0.1-0.1,0.2-0.3,0.2-0.4c0.1,0.1,0.2,0.2,0.3,0.2
					c0.4,0.3,0.8,0.3,1.1,0.3l0.4,0l0.6,0c0.4,0,0.8-0.2,1.1-0.5C344.1,109,344.2,108.6,344.2,108.3z M348.7,108.8
					c-0.1-1.3-1.1-1.4-1.6-1.4h0l-0.2-0.1c-0.3-0.5-0.9-0.9-1.6-0.9c-0.4,0-0.7,0.2-1,0.5c0,0-0.1,0.1-0.1,0.1l-0.1,0.2
					c-0.1,0.2-0.1,0.5,0,0.7l0.1,0.2c0.1,0.1,0.2,0.3,0.3,0.5c0.3,0.5,0.7,1.3,1.6,1.7c0.3,0.1,0.5,0.2,0.8,0.2c0.3,0,0.5,0,0.7-0.1
					C348.4,110.2,348.8,109.6,348.7,108.8z M419.1,152.8c0.2-0.3,0.4-0.6,0.4-1.1c0-1.1-0.7-1.9-1.8-2.1c0,0,0,0-0.1,0
					c-0.1,0-0.1,0-0.2,0c-0.6,0.1-1,0.4-1.2,0.8c-0.2,0.4-0.2,0.9,0.1,1.4c0.2,0.4,0.5,0.7,0.7,1l0.6,0.7c0.1,0.2,0.3,0.3,0.5,0.3
					c0,0,0,0,0.1,0c0.2,0,0.4-0.2,0.6-0.4l0.2-0.4L419.1,152.8z M421.5,157.9c0.1,0,0.3,0,0.4,0c0.6-0.1,0.8-0.5,1.1-0.8l0.1-0.1
					c0.1-0.2,0.2-0.4,0.1-0.6l0-0.2c-0.3-1-1.4-1.6-2.3-1.6c-0.3,0-0.5,0.1-0.8,0.2c-0.2,0.1-0.5,0.3-0.7,0.8
					c-0.1,0.4-0.1,0.8,0,1.1C419.9,157.5,420.6,157.9,421.5,157.9z M424,160.8c0.2-0.1,0.7-0.3,0.9-0.8c0.4-0.8,0-1.7-0.8-2.1
					c-0.2-0.1-0.5-0.2-0.7-0.2c-0.8,0-1.4,0.6-1.4,1.3c-0.1,0.8,0.4,1.6,1.2,1.8l0.1,0c0,0,0.1,0,0.1,0
					C423.6,161,423.8,160.9,424,160.8z M204.8,151.4c0-0.9,0.4-1.6,0.7-2c0.7-0.7,1.4,0,1.4,1.2c0,0.9-1.3,2.7-2.1,3.3
					C204.1,154.3,204.8,152.7,204.8,151.4z M206.1,135.8c-0.1,0-0.4-0.2-0.5-0.3c-0.5-0.7,0.1-1.4,0.3-2c0.1-0.2,0.2-0.3,0.4-0.4
					c0.2-0.1,0.4-0.1,0.6-0.1c0.1,0,0.2,0.1,0.2,0.2c0,0.2,0,0.4,0,0.6c0,0.2,0,0.3,0,0.4C206.8,134.7,207.1,135.7,206.1,135.8z
					 M209.2,159.8c0,0,0.2,0,0.2,0c0.4-0.1,1.6-0.3,1.7-1.6c0-0.6-0.1-1.1-0.5-1.7c-0.1-0.2-0.4-0.3-0.6-0.3c0,0-0.1,0-0.1,0
					c-0.9,0.1-2,1.6-1.9,2.4C208.1,159.4,208.7,159.8,209.2,159.8L209.2,159.8z M219.7,147.7c0.5,0,0.9-0.3,1.1-0.6
					c0.2-0.3,0.3-0.7,0.1-1c-0.1-0.3-0.4-0.5-0.8-0.6c0,0-0.1,0-0.1,0c-0.1,0-0.2,0-0.3,0.1l-0.1,0.1c-0.2,0.1-0.5,0.2-0.7,0.5
					c-0.2,0.3-0.3,0.7-0.1,1.1C218.9,147.5,219.2,147.7,219.7,147.7L219.7,147.7z M221.9,144.9c0.6-0.2,1.1-0.6,1.5-1.2
					c0.2-0.3,0.1-0.7,0-0.9c-0.1-0.2-0.5-0.4-0.7-0.4c0,0,0,0,0,0c-0.8,0.1-1.4,0.4-1.8,1.1c-0.3,0.4-0.1,0.8,0,1
					c0.1,0.2,0.3,0.3,0.5,0.4l0.1,0c0.1,0.1,0.2,0.1,0.3,0.1C221.7,145,221.8,145,221.9,144.9z"/>
				<path d="M295.1,327c-0.2-1.3,4.1-2.2,4.4-1.7c0.4,0.9-0.5,2-2.3,2.4C296,327.8,295.3,328.3,295.1,327z M292,331.5
					c-0.4,0-1,0.2-1.4,0.3c-0.2,0-0.3,0.1-0.3,0.1c-0.5,0.1-0.7,0.6-0.8,0.9l0,0.1c-0.1,0.2,0,0.4,0,0.5c0.1,0.2,0.3,0.3,0.7,0.3h0
					c0.6,0,2.3-1.2,2.3-1.8C292.5,331.7,292.4,331.5,292,331.5z M293.1,327.6c-0.2,0-0.4,0-0.6,0c-0.6,0.1-1.1,0.3-1.5,0.5
					c-0.1-0.1-0.2-0.1-0.3-0.2c-0.1-0.1-0.5,0-0.6,0c0,0,0.1-0.4,0.3-0.5c0.4-0.2,0.7-0.3,1.1-0.5c0.2-0.1,2.2-0.4,2.4-0.5
					c0.2-0.1,0.3-0.3-0.1-0.4c-0.2,0-3,0.6-3.1,0.5c-0.2-0.1-0.2-0.5-0.1-0.6c0.1-0.1,3-0.5,3.1-0.6c0.1,0,0.1-0.2,0.1-0.2
					c0-0.1-0.1-0.1-0.1-0.1c-0.8,0.2-3.4,0.3-4.3,0.4c-0.2,0-0.3,0-0.5-0.1c-0.1,0-0.3-0.2-0.3-0.3c0-0.1,0.2-0.3,0.2-0.3
					c0.4,0,0.8-0.1,1.2-0.1c0.2,0,0.5,0.2,0.7,0.2c0.2-0.1,0.3-0.5,0.2-0.7c-0.2-0.3-1.6-0.3-2-0.2c-0.3,0.1-1.5,0-2,0.1
					c-0.3,0-2.3,0-3.4-0.2c-1.9-0.3-5-0.8-6.6-1.4c-2.3-0.9-4.8-2-7.3-3.4c-1.5-0.8-3.6-1.9-5-2.9c-1.9-1.4-3.1-2.2-4.9-3.6
					c-1.5-1.1-3.5-3.1-5-4.3c-2-1.7-4-3.5-6.1-5.3c-3-2.6-5.5-5.6-8.5-8.3c-0.2-0.2-0.5-0.4-0.7-0.7c-0.9-1.1-1.7-2.2-2.6-3.3
					c-0.2-0.3-0.4-0.7-0.7-0.8c-0.9-0.2-1.1-0.9-1.3-1.7c-0.2-1-0.8-1.8-1.8-2.1c-0.5-0.2-0.9-0.4-1.2-0.8c-0.5-0.6-0.9-1.2-1.4-1.9
					c-0.2-0.3-0.4-0.6-0.3-1c0-0.4-0.1-0.6-0.4-0.8c-0.5-0.2-0.9-0.6-0.8-1.1c0.1-0.6-0.2-0.9-0.6-1c-0.3-0.1-0.4-0.3-0.4-0.6
					c0.1-0.5-0.2-0.9-0.7-1c-0.6-0.1-0.9-0.6-1.2-1.1c-1.2-1.9-2.4-3.7-3.4-5.8c-0.3-0.6-0.6-1.2-0.9-1.8c-1.2-2-2-4.2-2.9-6.3
					c-0.8-1.9-1.8-3.6-2.6-5.4c-0.1-0.3-0.5-0.4-0.5-0.8c-0.1-0.8-0.4-1.6-1-2.2c-0.2-0.2-0.2-0.5-0.3-0.7c-0.2-0.6-0.5-1.2-0.7-1.8
					c-0.4-1-1-2.1-1.4-3.1c-0.4-1.1-1.1-2.1-1.3-3.2c-0.1-0.7-0.5-1.2-0.9-1.8c-0.4-0.6-0.2-1.4-0.6-2.1c-0.4-0.7-0.7-1.4-0.9-2.1
					c-0.3-0.7-0.4-1.4-0.9-1.9c-0.6-0.6-0.1-1.5-0.5-2.1c-0.2-0.3-0.4-0.6-0.3-1c0-0.2-0.1-0.4-0.2-0.5c-0.7-0.8-0.9-1.8-1.2-2.7
					c-0.3-0.9-0.4-1.9-1-2.6c-0.1-0.1-0.2-0.4-0.2-0.5c0.1-0.5-0.1-0.6-0.5-0.7c-0.4,0-0.6-0.4-0.4-0.7c0.4-0.6,0.3-1.2,0.1-1.8
					c-0.6-1.6-0.7-3.4-1.6-4.9c-0.1-0.3-0.1-0.6-0.1-0.9c0-1.1-0.4-2.1-0.5-3.2c-0.1-0.5-0.3-1.1-0.5-1.5c-0.2-0.4-0.7-2-0.7-2.4
					c0-1,0-1.9-0.5-2.7c-0.3-0.5-0.6-1.1-0.4-1.6c0.2-0.5,0.2-1.1-0.1-1.6c-0.2-0.4-0.3-0.9-0.2-1.3c0-0.3,0-0.6-0.1-0.9
					c-0.5-1.1,0-2.4-0.7-3.4c-0.1-0.1-0.1-0.3-0.1-0.5c0-0.3-0.1-0.6-0.1-0.9c-0.2-1.5-0.6-3-0.6-4.6c0-1-0.2-2.1-0.3-3.1
					c-0.1-3.4-0.1-6.8-0.2-10.2c-0.1-3.8-0.2-7.6-0.2-11.4c0-0.6-0.1-1.3,0-1.9c0.2-0.9,0.1-1.7,0.2-2.6c0-0.5,0-1,0.1-1.5
					c0.3-2.1,0.4-4.1,0.5-6.2c0-0.5,0-1.1,0.1-1.6c0.1-1.1,0.2-2.2,0.3-3.2c0-1,0-2,0.2-3c0.1-0.3,0-0.6,0-0.9
					c0-0.1,0.1-1.2,0.2-1.7c0.2-1.2,0.4-2.4,0.5-3.6c0.1-0.8,0.2-1.5,0.5-2.3c0.3-1,0.6-2,0.9-3c0.3-1.1,0.6-2.3,1.1-3.4
					c0.5-1.1,0.6-2.3,1.1-3.5c0.1-0.2,0.1-0.4,0.1-0.7c-0.1-0.7,0.2-1.2,0.6-1.7c0.2-0.2,0.3-0.4,0.2-0.6c-0.2-0.4,0-0.7,0.2-1
					c0.7-1.1,1.4-2.1,1.7-3.4c0-0.2,0.2-0.3,0.3-0.4c0.4-0.3,0.6-0.8,0.5-1.3c-0.1-0.5,0.1-0.8,0.4-1.1c0.5-0.5,1-1.1,1.2-1.8
					c0.1-0.2,0.2-0.4,0.3-0.6c0.4-0.6,0.7-1.1,1.1-1.7c1.1-1.8,2.1-3.6,3.7-5c0.1-0.1,0.2-0.3,0.3-0.4c0.8-1,1.4-2.1,2.3-3
					c0.4-0.4,0.8-1,1.2-1.4c1.3-1.6,2.7-3.2,4.2-4.6c1.3-1.2,2.8-2.1,4-3.5c0.9-1,2-1.7,3.1-2.5c0.3-0.2,0.5-0.3,0.8-0.5
					c0.2-0.1,0.3-0.3,0.2-0.5c-0.1-0.1-0.2-0.1-0.4-0.1c-0.5,0.1-1,0.3-1.6,0.5c-0.7,0.3-1.4,0.6-2.1,0.3c-0.9-0.4-1.7-0.1-2.5,0.3
					c-1.5,0.8-2.9,1.7-4.2,2.7c-0.7,0.6-1.5,1.1-2.3,1.4c-0.7,0.3-1.3,0.7-1.8,1.1c-0.5,0.4-0.9,0.7-1.4,1.1
					c-0.6,0.4-1.1,0.9-1.6,1.5c-0.3,0.3-0.5,0.5-0.8,0.7c-0.9,0.7-1.9,1.3-2.6,2.2c-1,1.2-2,2.3-3,3.5c-0.2,0.2-0.4,0.5-0.7,0.7
					c-1.1,0.8-1.9,1.8-2.8,2.7c-0.4,0.5-0.8,1-1.4,1.3c-0.8,0.5-1.4,1.1-1.9,1.9c-0.6,0.8-1.2,1.7-1.9,2.5c-1.4,1.4-2.6,2.9-3.7,4.5
					c-0.3,0.4-0.5,0.8-0.8,1.1c-1.3,1.3-2.4,2.7-3.4,4.2c-1.4,2-2.5,4.2-3.9,6.2c-0.8,1.2-1.6,2.5-2.4,3.6c-1,1.4-2,2.7-2.7,4.2
					c-0.9,1.8-2.1,3.5-3.3,5.1c-0.2,0.3-0.4,0.6-0.6,0.9c-0.4,0.6-0.7,1.3-1.1,1.9c-0.6,1-1.3,2-1.6,3.2c0,0.2-0.2,0.4-0.3,0.6
					c-0.5,0.5-0.7,1.1-1,1.8c-0.6,1.3-1.2,2.6-1.8,4c-0.1,0.3-0.3,0.6-0.3,0.9c0,0.7-0.4,1.4-0.5,2.1c-0.1,0.5-0.4,0.9-0.6,1.4
					c-0.2,0.3-0.4,0.6-0.7,0.8c-0.4,0.3,0.2,0.7-0.2,1c-0.3,0.4-0.4,0.9-0.6,1.4c-0.2,0.6-0.6,1.2-0.7,1.9c-0.8,1.2-1,2.7-1.7,4
					c-0.7,1.5-0.8,3.1-1.7,4.5c-0.2,1.4-1,2.5-1.2,3.9c-0.3,1.7-0.1,3.2-0.6,4.8c-0.3,1-0.4,2-0.9,3c-0.1,0.2-0.1,0.6-0.1,0.9
					c0,0.5,0,1-0.2,1.5c-0.4,1.2-0.5,2.4-0.7,3.6c-0.1,0.4-0.1,0.9-0.2,1.3c-0.3,1-0.6,2-0.7,3c-0.2,1.3-0.4,2.6-0.3,3.9
					c0,0.1,0,0.3,0,0.4c-0.4,0.8-0.3,1.6-0.3,2.4c-0.1,0.8-0.1,1.6-0.3,2.4c-0.1,0.2-0.1,0.4,0,0.5c0.5,0.6,0.2,2.6,0.2,3.2
					c0,0.3,0,0.5,0,0.8c0.1,1.9,0.2,3.8,0.2,5.7c0,0.5,0,1.1,0.2,1.6c0.2,0.6,0.2,1.3,0,1.9c-0.2,0.5-0.3,1-0.1,1.5
					c0.1,0.2,0,0.4-0.1,0.6c-0.3,0.4-0.4,1-0.3,1.4c0.2,0.6,0.2,1.2,0.2,1.9c0.1,0.7,0.1,1.4,0.3,2.1c0.2,0.5,0.3,1.1,0.3,1.7
					c-0.1,0.6,0,1.3,0.4,1.8c0.2,0.3,0.2,0.6,0.2,0.9c-0.1,1.1,0.2,2.2,0.5,3.3c0.2,0.7,0.5,1.5,0.6,2.2c0.2,1.7,0.9,3.2,1.2,4.9
					c0.3,1.3-0.5,2.6,0.4,3.8c0.2,0.2,0.3,0.5,0.2,0.8c0,0.2,0,0.4,0.1,0.5c0.3,0.4,0.3,0.7,0.1,1.1c-0.1,0.2-0.1,0.3,0,0.5
					c0.2,0.3,0.2,0.7,0.4,0.9c0.4,0.3,0.2,0.8,0.4,1.1c0.2,0.3,0.4,0.7,0.2,1.2c0,0.1,0,0.2,0,0.3c0.6,0.4,0.4,1.1,0.7,1.6
					c1.5,2.5,2.5,5.2,3.9,7.8c0.2,0.4,0.4,0.8,0.7,1.1c0.6,0.7,1.6,3.3,1.9,3.5c0.3,0.2,0.4,0.4,0.5,0.8c0,0.1,0.1,0.3,0.1,0.4
					c0.1,0.5,1.8,4.2,2.3,4.8c0.2,0.3,0.6,0.5,0.7,1c0.1,0.7,0.5,1.2,0.8,1.9c0.1,0.3,0.3,0.5,0.1,1c-0.2,0.5,0.1,1.1,0.7,1.3
					c0.2,0.1,1.8,3.3,2.8,4.3c0.1,0.1,0.2,0.2,0.2,0.3c-0.1,0.5,0.3,0.7,0.5,1c0.2,0.3,0,0.8,0.3,1.1c0.1,0.2,0.2,0.4,0.3,0.6
					c0.1,0.2,2,3.4,2.1,3.6c0.3,0.4,1.5,0.5,1.6,0.8c0.4,1.3,1.2,2.3,1.9,3.4c0.2,0.3,0.4,0.5,0.7,0.6c0.6,0.2,0.9,0.6,1.1,1.1
					c0.5,1,1.1,1.9,1.8,2.7c0.5,0.6,0.8,1.3,1.5,1.7c0.2,0.1,0.3,0.4,0.5,0.6c0.3,0.4,0.7,0.9,1,1.3c1.7,2,3.4,3.5,5.1,5.5
					c0.6,0.7,1.2,1.4,1.9,2c1.4,1.2,2.8,2.4,4.2,3.4c0.6,0.4,1.2,0.9,1.7,1.3c1,0.9,2,1.9,3.1,2.7c1.8,1.4,3.7,3.3,5.6,4.6
					c2.5,1.8,5.2,2.7,7.8,4.2c4.3,2.4,9,5.5,13.7,7c0.2,0.1,0.4,0.2,0.6,0.2c1.3,0.1,2.1,0.6,3.3,1c2,0.7,4.2,1.3,6.3,1.7
					c1.2,0.2,2.5,0.3,3.8,0.5c2,0.3,4,0.6,6,0.6c0.5,0,0.9,0.1,1.3,0.2c0.6,0,1.2,0.2,1.7,0c0.8-0.3,1.5-0.2,2.3-0.2
					c1.6,0.1,3.2,0.1,4.8,0.2c1.2,0.1,2.3-0.5,3.5-0.6c1.8-0.2,4.3-0.4,5.9-1.2c0.1,0,0.2,0,0.3,0c0.9,0.1,1.8-0.2,2.7-0.3
					c0.9-0.1,1.7-0.6,2.6-0.8c0.5-0.1,2.8-0.5,3.3-0.6c1.5-0.5,3-1,4.5-1.5c0.7-0.2,1.3-0.6,2-0.8c0.2-0.1,0.2-0.3,0.1-0.4
					c-0.3-0.2-0.6-0.4-1-0.3c-0.3,0.1-0.7-0.2-0.9-0.2c-1,0-0.6,0.7-0.7,0.9c-0.2,0.3-0.5,0.3-0.8,0.1c-0.1-0.1-0.2-0.1-0.3-0.2
					c-0.2-0.1-0.3-0.1-0.4,0.1c-0.1,0.2-0.1,0.1-0.2,0.3c-0.1,0.2-0.3,0.4-0.5,0.4c-0.5-0.1-0.9,0-1.3,0.1c-0.4,0.1-2.5-0.2-2.9,0.1
					c-0.1,0-0.5-0.3-0.5-0.4c0-0.1,0.3-0.4,0.3-0.4c0.7-0.1,3-0.7,3.6-0.7c0.1,0,0.2,0,0.2-0.1c0.4-0.7,1.4-0.3,1.9-0.9
					c0.5-0.6,4.1-1,4.5-1.1c0.1,0,1.7-0.7,1.8-0.7c0,0,0.1-0.1,0.1-0.1c0-0.1,0-0.2-0.1-0.2c-1.1,0.1-6.3,0.7-6.8,0.7
					c-0.3,0-0.7,0.1-1,0.3c-0.1,0.1-0.3,0.2-0.4,0c-0.2-0.2-0.3-0.4-0.2-0.6c0.2-0.3,0.4-0.5,0.5-0.8c0.1-0.3,2.6-0.9,2.8-1
					c0.7-0.3,3.2-0.1,3.2,0c0.1,0.1,0.2,0.4,0.5,0.4h0c0.2,0,0.4-0.1,0.6-0.2c0.2,0.1,0.4,0.1,0.8,0.1c0.1,0,0.1,0,0.2,0
					c1.1,0,1.5-0.4,1.9-0.7c0.1-0.1,0.4-0.4,0.4-0.4l0-0.1C294,327.6,293.3,327.6,293.1,327.6z M191.6,131c0.3-0.8,0.7-1.8,1.6-2.5
					l0.1-0.1c0.1-0.1,0.2-0.2,0.2-0.2c0.1-0.6,0.6-1,0.9-1.2c0.1-0.1,0.2-0.1,0.2-0.2c0.1-0.1,0.3-0.2,0.4-0.2c0,0-0.1-0.1-0.1-0.1
					c-0.4-0.5-0.1-1-0.1-1.2c0-0.1,0-0.1,0.1-0.2c0.4-0.6,0.8-0.9,1.4-1c0.1,0,0.2,0,0.3,0c0.5,0,0.9,0.3,1.1,0.8
					c0.1,0.4,0,0.9-0.4,1.2c-0.2,0.2-0.5,0.4-0.7,0.5c-0.1,0.1-0.2,0.2-0.4,0.3c0.2,0.2,0.3,0.5,0.3,0.6c0.1,0.4-0.2,0.8-0.3,0.9
					c0,0-0.1,0.2-0.1,0.2c0,0.2-0.1,0.4-0.3,0.7c0,0.1,0.1,0.2,0.1,0.3c0,0.2-0.1,0.5-0.3,0.6c-0.2,0.2-0.2,0.4-0.2,0.9l0,0.4
					c0,0.8-0.5,1.4-0.9,1.8c-0.3,0.4-0.7,0.4-0.8,0.4c0,0-0.1,0-0.1,0c-0.2,0-0.5-0.1-0.6-0.2l0,0c-0.1-0.1-0.2-0.2-0.2-0.3
					c-0.1-0.3-0.2-0.4-0.2-0.4c0,0-0.2-0.1-0.3-0.1C191.6,132.3,191.3,131.7,191.6,131z M189.1,135.5c0.1-0.2,0.2-0.5,0.3-0.8
					c0-0.1,0.1-0.1,0.1-0.2c0.2-0.4,0.5-1,1.3-1.2c0.1,0,0.1,0,0.2,0c0.3,0,0.5,0.1,0.7,0.3c0.1,0.1,0.2,0.2,0.2,0.3
					c0.1,0.1,0.3,0.3,0.5,0.5c0.2,0,0.5,0.1,0.7,0.3c0.3,0.3,0.3,0.6,0.3,0.8c0,0.3-0.3,0.8-0.7,0.9c-0.1,0.1-0.3,0.1-0.4,0.1
					c0,0-0.1,0-0.1,0c0,0.2-0.1,0.3-0.2,0.5c-0.2,0.4-0.5,0.6-0.7,0.8l-0.1,0.1c-0.1,0.1-0.3,0.2-0.5,0.2c0,0-0.1,0-0.2,0
					c-0.2,0-0.4-0.1-0.6-0.2c-0.4-0.2-0.6-0.7-0.5-1.1c0,0,0,0,0,0c0,0-0.1-0.1-0.1-0.1C189,136.4,188.9,135.9,189.1,135.5z
					 M182.1,147.3c0-0.1,0.1-0.1,0.1-0.2c0.2-0.6,0.7-0.9,1.2-0.9c0.4,0,0.7,0.2,0.9,0.5c0.2,0.4,0.3,0.9,0,1.3
					c-0.1,0.2-0.3,0.5-0.4,0.7c-0.2,0.3-0.4,0.4-0.5,0.5c-0.1,0.1-0.3,0.2-0.5,0.2c-0.1,0-0.2,0-0.3-0.1l-0.1,0
					c-0.3-0.1-0.5-0.3-0.6-0.6C181.8,148.1,182,147.6,182.1,147.3z M172.1,171.1c0.1-0.2,0.4-0.5,0.8-0.6c0,0,0,0,0,0
					c0.5,0,0.7,0.2,0.9,0.4c0.1,0.1,0.3,0.4,0.1,0.9c0,0,0,0.1-0.1,0.3c0.1,0,0.2-0.1,0.2-0.1c0.1,0,0.2,0,0.3,0
					c0.5,0,0.8,0.3,0.9,0.4c0.2,0.3,0.2,0.6,0.1,0.9c0,0.1,0,0.2-0.1,0.3c-0.1,0.4-0.2,0.8-0.5,1.2c-0.2,0.3-0.6,0.5-0.9,0.5
					c-0.3,0-0.5-0.1-0.7-0.3c-0.1-0.1-0.2-0.3-0.3-0.5c0,0-0.1,0-0.1,0.1c-0.1,0.1-0.3,0.1-0.4,0.1c-0.2,0-0.4-0.1-0.5-0.2l-0.1-0.1
					c-0.1-0.1-0.2-0.3-0.3-0.5c-0.1-0.5-0.1-0.9,0.1-1.4c0.2-0.4,0.4-0.7,0.6-1.1L172.1,171.1z M168.4,169.7c0.5-0.8,0.7-1.7,1-2.5
					c0.1-0.3,0.1-0.6,0.2-0.8c0.1-0.3,0.3-0.5,0.5-0.7c0.2-0.1,0.5-0.2,0.7-0.2c0.1,0,0.2,0,0.3,0.1c0.4,0.1,0.6,0.5,0.6,0.6
					c0.1,0.3,0.1,0.5,0.1,0.6c0,0.1,0,0.1,0,0.2c0,0.1-0.1,0.2-0.1,0.2c-0.1,0.1-0.1,0.3-0.1,0.5c-0.1,0.4-0.2,0.9-0.5,1.4l0,0
					c0,0,0,0.1,0.1,0.2c0,0.2,0.1,0.4,0.1,0.7c-0.1,1-0.6,1.5-1.6,1.5h-0.1c-0.5,0-0.9-0.2-1.1-0.6
					C168.1,170.5,168.1,170.1,168.4,169.7z M166.9,175.4l0-0.1c0-0.1,0.1-0.3,0.1-0.5c0.1-0.4,0.5-0.6,0.6-0.6l0.1-0.1
					c0.1-0.1,0.3-0.1,0.4-0.1c0.1,0,0.1,0,0.2,0c0.2,0,0.4,0.2,0.4,0.3l0.1,0.2c0,0,0.2,0.2,0.2,0.5c0,0.2,0.2,0.8-0.2,1.4
					c-0.1,0.2-0.3,0.4-0.4,0.4l-0.2,0.1c-0.1,0.1-0.3,0.1-0.4,0.1c-0.2,0-0.4-0.1-0.6-0.3l-0.1-0.1c-0.1-0.1-0.2-0.3-0.3-0.5
					c-0.1-0.1-0.1-0.3-0.1-0.4C166.9,175.7,166.9,175.4,166.9,175.4z M164.1,183.6c0,0,0.1-0.5,0.1-0.5c0.1-0.6,0.6-2.2,1.6-2.2
					c0.3,0,0.5,0.1,0.7,0.3c0.5,0.5,0.9,1.2,0.9,2.1c0.1,0.8-0.4,1.5-1.1,1.7c-0.1,0-0.1,0-0.1,0c0,0,0.1,0.1,0.1,0.1l0.1,0.1
					c0.1,0.2,0.1,0.5,0,0.7c-0.4,0.6-0.8,0.9-1.3,1.1c0,0-0.1,0-0.2,0c0,0-0.1,0-0.1,0c-0.5,0-0.9-0.5-1-0.9
					c-0.1-0.9,0.4-1.3,0.7-1.4C164,184.5,164.1,184,164.1,183.6z M160,204.9C160,204.9,160.1,204.9,160,204.9c0-0.2,0-0.3,0-0.5
					c0,0,0-0.2,0-0.2c0-0.4,0-1.4,1-1.8c0.1,0,0.3-0.1,0.4-0.1c0.1,0,0.1,0,0.2,0c0.2,0.1,0.6,0.2,0.8,0.5c0.4,0.7,0.4,1.5-0.1,2.3
					c0,0,0,0,0,0c0.1,0.3,0.2,0.6,0.2,0.9c-0.1,0.8-0.6,1.3-1.4,1.4c0,0-0.1,0-0.1,0c-0.1,0-0.1,0-0.2,0l0,0
					c-0.6-0.1-1.1-0.7-1.1-1.4C159.6,205.6,159.7,205.2,160,204.9z M160.9,212.6C160.8,212.6,160.8,212.6,160.9,212.6
					c-0.2,0-0.3,0-0.4,0l0,0c-0.3-0.1-0.8-0.4-1-1.3c-0.1-0.5,0.1-1,0.4-1.3c0.2-0.3,0.6-0.4,0.9-0.4c0,0,0.2,0,0.2,0
					c0.4,0.1,0.9,0.4,1.1,0.9c0.2,0.6-0.1,1.2-0.2,1.4C161.6,212.3,161.2,212.6,160.9,212.6z M164.8,242.7l0,0.2
					c0,0.2-0.1,0.2-0.1,0.3c-0.1,0.3-0.5,0.6-0.9,0.6h0c-0.5,0-0.8-0.2-1-0.5c-0.3-0.5-0.5-1-0.6-1.4c-0.2-0.5,0-1.1,0.5-1.4
					c0.2-0.1,0.4-0.2,0.7-0.2c0.4,0,0.7,0.2,0.9,0.4c0.4,0.5,0.6,1.1,0.6,1.7C164.8,242.6,164.8,242.6,164.8,242.7z M178.7,280.7
					c0,0.2,0,0.4-0.1,0.6c-0.1,0.3-0.4,0.4-0.5,0.5c-0.1,0.1-0.3,0.2-0.5,0.2h-0.1c-0.5,0-0.9-0.4-1-0.8c0,0,0-0.1,0-0.2
					c0-0.2-0.1-0.5-0.1-0.8c-0.1,0-0.2,0-0.3,0c-0.4,0-0.8-0.2-1.1-0.6c-0.5-0.7-0.5-1.4-0.5-2c0-0.3,0-0.5-0.1-0.7c0,0,0-0.1,0-0.1
					l0-0.3c0.1-0.3,0.1-0.6,0.2-1c0.1-0.5,0.6-0.8,0.9-0.8c0,0,0.2,0,0.2,0c0.4,0,0.8,0.2,1,0.5c0.3,0.4,0.7,0.9,0.4,1.7
					c-0.2,0.7-0.1,1.1,0.1,1.4c0.2,0.2,0.2,0.5,0.2,0.8c0,0,0.1,0,0.1,0c0.4,0.1,0.7,0.5,0.9,0.8c0.1,0.2,0.1,0.4,0.1,0.6
					C178.8,280.6,178.8,280.6,178.7,280.7z M184,289.8c-0.2,0.2-0.5,0.3-0.8,0.3c-0.4,0-0.8-0.2-1.2-0.9c-0.1-0.1-0.1-0.3-0.2-0.4
					c-0.2-0.4-0.6-0.9-0.6-1.5c-0.6-0.2-1-0.7-1.2-1.1c0-0.1-0.1-0.2-0.2-0.3c-0.4-0.5-0.8-1.1-0.6-2c0.1-0.3,0.3-0.7,0.7-0.8
					c0.1,0,0.3-0.1,0.5-0.1c0.3,0,0.6,0.2,0.8,0.4c0.5,0.8,0.9,1.6,1.4,2.4c0.2,0.1,0.3,0.2,0.4,0.3c0,0,0,0.1,0.1,0.1
					c0.7,0.5,1,1.3,1.3,2.1C184.5,288.7,184.5,289.4,184,289.8z M184.1,271.5c-0.1,0-0.1,0-0.2,0c-0.1,0-0.2,0-0.3,0l-0.1,0
					l-0.1-0.1c-0.2-0.1-0.6-0.2-0.8-0.7c0,0,0,0,0,0c-0.1,0-0.2,0.1-0.3,0.1c0,0-0.1,0-0.1,0c-0.1,0-0.6,0-1-0.4
					c-0.2-0.3-0.5-0.6-0.7-0.8l-0.6-0.8c-0.2-0.3-0.4-0.6-0.4-0.9c-0.5-0.2-0.8-0.5-1.1-0.9c-0.5-0.1-0.9-0.5-1-0.9
					c0-0.3,0-0.6,0-0.9c-0.4-0.2-0.7-0.5-0.9-0.9c-0.2-0.5-0.4-1-0.6-1.4l-0.1-0.2c-0.4-0.9-0.8-1.7-1.1-2.6c-0.3-0.8-0.6-1.6-1-2.4
					c0,0-0.3-0.7-0.4-0.9c-0.1-0.3-0.2-0.5-0.2-0.8c-0.4-1.8-0.9-3.6-1.3-5.3c-0.1-0.2-0.1-0.4-0.2-0.5c-0.3-0.4-0.6-1-0.7-1.6
					c0-0.1-0.1-0.3-0.3-0.5c-1.2-1.1-1.2-2.5-1.1-3.4c0-0.4,0-0.6-0.1-0.8c-0.5-0.7-0.6-1.6-0.3-2.4c0.1-0.1,0.1-0.3-0.1-0.6
					c-0.1-0.1-0.2-0.3-0.3-0.4c-0.1-0.2-0.2-0.3-0.3-0.4c-1-1.4-1.4-2.8-1.2-4.3c0-0.3,0-0.6-0.1-0.8c-0.3-0.7-0.5-1.5-0.6-2.2
					c-0.2,0.3-0.5,0.4-0.8,0.4c-0.2,0-0.3,0-0.4-0.1c-0.4-0.2-0.6-0.5-0.8-0.8c-0.2-0.6-0.3-1.3-0.1-2c0-0.2,0.1-0.3,0.3-0.5
					c-0.1-0.1-0.2-0.1-0.3-0.2c-0.2-0.2-0.4-0.4-0.4-0.9c0-0.3,0.1-0.5,0.1-0.8c0-0.3,0.4-0.8,1-0.8c0,0,0.1,0,0.2,0
					c0.2,0.1,0.6,0.2,0.8,0.5c0-0.4,0-0.7,0-1.1v-0.2c0-0.4,0-0.7,0-1.1c0-0.3-0.1-0.5-0.1-0.7c-0.2-1.3-0.3-2.6-0.2-3.9
					c-0.2-0.7-0.1-1.4,0-1.9c0-0.3,0.1-0.5,0.1-0.6c0-0.3,0-0.6,0-0.9c0-0.5,0-1,0.1-1.5c0.1-0.7,0.1-1.1-0.2-1.5
					c-0.5-0.7-0.5-2.9-0.3-3.5c0.2-0.4,0.1-0.8,0.1-1.3l0-0.1c0-0.3,0-0.7,0-1c0-0.3,0-0.5,0-0.7c0-0.8,0-1.7,0.7-2.5
					c-0.5-0.8-0.2-1.6-0.1-2.1l0.1-0.2c0.3-1,0.3-1.8,0.2-2.6c-0.1-0.4-0.3-1.7,0.8-2.6c-0.4-0.8-0.5-1.3-0.9-1.1
					c-0.1,0-0.2,0.1-0.3,0.1c-0.1,0.3-0.2,0.7-0.7,0.9c-0.2,0.1-0.3,0.1-0.4,0.1c-0.4,0-0.7-0.2-1-0.5c0,0.2-0.1,0.4-0.2,0.6
					c-0.3,0.6-0.6,1.1-0.8,1.7c0.2,0.2,0.4,0.4,0.4,0.7c0.1,0.3-0.1,0.7-0.4,0.9c0,0.2-0.1,0.4-0.3,0.6c-0.2,0.3-0.5,0.4-0.8,0.4
					c-0.5,0-0.9-0.3-1-0.7c0-0.1,0-0.2-0.1-0.2c-0.1-0.3-0.4-1,0-1.7c0.1-0.1,0-0.4,0-0.6c-0.1-0.8,0.1-1.4,0.2-2l0.1-0.5
					c0.1-0.8,1.3-1.5,1.2-1.7c-0.4-0.5-0.3-1.1-0.2-1.7c0-0.1,0-0.1,0-0.2c0-0.3,0.1-0.8,0.5-1.2v0c-0.1-0.7,0.2-1.2,0.3-1.6
					l0.1-0.2c0.2-0.4,0.6-0.6,1-0.6c0.6,0.1,0.9,0.5,1,0.9c0,0.2,0,0.4,0,0.6v0.3c0.1,0.2,0,0.6-0.1,0.9c-0.1,0.4-0.2,0.7-0.1,0.9
					c0.1,0.4,0,0.8-0.4,1.2c-0.1,0.3-1.1,1.1-0.9,1.1c0.2,0.1,0.4,0.3,0.5,0.4c0.1-0.1,0.1-0.2,0.2-0.3c0.2-0.3,0.6-0.4,0.9-0.4
					c0.1,0,0.1,0,0.2,0c0.2-0.4,0.6-0.6,0.9-0.6h0c0.7,0,0.9,0.5,1,0.7c0,0,0.2,0.1,0.2,0c0-0.7,0.5-1,0.7-1.2
					c0.1-0.1,0.1-0.1,0.2-0.1c0,0,0.1-0.1,0.1-0.1c0,0,0,0,0-0.1c-0.5-0.9-0.3-1.8-0.2-2.2l0.2-0.9c0.2-0.8,0.4-1.7,0.6-2.6
					c0.1-0.3,0.2-0.6,0.4-0.9c0.2-0.5,0.4-1,0.5-1.5c0-0.2,0.1-0.4,0.1-0.5c0-0.2,0.1-0.3,0.1-0.5c0.2-1.1,0.4-1.7,1.1-2.6
					c0-0.1,0.1-0.1,0.1-0.3c0-0.4,0.1-0.9,0.2-1.4c0.1-0.3,0.3-0.7,0.6-0.9c0,0,0,0,0,0c-0.1-0.2-0.4-0.8-0.1-1.4
					c0.2-0.5,0.7-0.8,1.1-0.9c0.1,0,0.3-0.1,0.4-0.1c0,0,0.2,0,0.2,0c0.1,0,0.3,0,0.4,0.1c0.3,0.1,0.4,0.3,0.5,0.6
					c0.1,1.1-0.4,1.6-0.7,1.8c0,0.1-0.1,0.1-0.1,0.1c0.1,0.2,0.2,0.4,0.1,0.7l-0.4,1.8c-0.2,1-0.4,2-0.6,3c-0.2,1.1-0.4,2.3-0.6,3.4
					l-0.2,1.3c0,0.2-0.1,0.5,0,0.6c0.3,0.7,0.3,1.4-0.1,2c0.1,0.3,0.1,0.5,0.1,0.8c-0.1,0.4-0.4,0.7-0.8,0.9c0,0.1,0,0.1,0,0.2
					c0.1,0,0.2,0.1,0.3,0.1c0.1,0.1,0.5,0.3,0.5,0.8c0.1,1,0.2,2.1,0.3,3.2l0.1,0.7c0,0.5,0,1.2-0.3,1.8c0,0.1,0,0.3,0,0.5
					c0,0.5,0,0.9,0,1.3c0,1.1,0.1,2.1,0.1,3.1c0.1,0.7,0,1.4-0.1,2.2c0,0.1,0,0.1,0,0.2c0,0.3-0.1,0.4,0,0.6c0.1,0.4,0.1,1-0.5,1.5
					c0,0,0,0.1,0,0.2c0.1,0.4,0.1,1,0.2,1.6l0,0.5c0.1,0.7,0.1,1.6,0.2,2.1c0.1,0.4,0.1,0.8,0,1.2c0.2,0.2,0.4,0.5,0.5,0.8
					c0,0.4-0.1,0.7-0.3,1c-0.2,0.2-0.1,0.4,0.1,1.1l0.1,0.4c0.3,0.8,0.2,1.2-0.2,1.7c0.4,0.5,0.3,1.2,0.3,1.4c0,0.1,0,0.3,0,0.4
					l0,0.2c0,0.2,0,0.3,0,0.5c0.3,0.1,0.5,0.3,0.7,0.5c0.2,0.4,0.1,0.8,0,0.9c0,0-0.1,0.1-0.1,0.2c-0.1,0.4-0.6,0.7-0.8,0.8
					c-0.1,0.4-0.1,0.7-0.4,1.1l0,0c0,0,0,0.1,0,0.2c0,0.1,0,0.1,0,0.2c0.1,0,0.1,0,0.2,0c0.1,0,0.1,0,0.2,0c0.6,0,1.1,0.4,1.2,0.9
					c0.1,0.6,0.3,1.2,0.3,1.9c0.1,0.4-0.1,0.9-0.6,1.2c0.9,0.1,0.9,1,0.9,1.6c0,0.2,0,0.4,0,0.6c0,0,0,0.2,0,0.2
					c0,0.3-0.1,0.8-0.5,1.2l-0.1,0.1c-0.1,0.1-0.3,0.2-0.5,0.2c0,0,0,0,0,0c-0.1,0.5-0.2,1.1-0.4,1.7c-0.2,0.6-0.1,1,0.3,1.2
					c0.2,0.2,0.3,0.3,0.4,0.5c0.1,0.1,0.2,0.2,0.2,0.2c0.5,0.3,0.9,0.8,1,1.4c0.1,0.6,0.2,1.1,0.4,1.6c0.3,0.8,0.3,1.7-0.1,2.5
					c0.4,0.3,0.7,0.7,0.7,1.2c0,0.2,0.1,0.4,0.1,0.4c0.5,0.2,0.7,0.9,0.5,1.4c0.4,0.2,0.8,0.6,0.9,1.3c0,0.1,0.1,0.3,0.2,0.4
					c0.4,0.1,0.8,0.3,0.9,0.7c0,0,0,0.1,0.1,0.1c0.1,0.3,0.2,0.6,0.2,1.1c0.3,0.2,0.5,0.5,0.5,0.8c0,0.2,0.1,0.7-0.2,1.1
					c0.1,0.1,0.1,0.2,0.2,0.3c0.3,0.5,0.4,1,0.5,1.4c0.1,0.3,0.1,0.5,0.2,0.8c0,0,0.1,0.1,0.2,0.2c0.2,0.2,0.5,0.6,0.5,1.2
					c0,0.1,0,0.1,0,0.2c0,0.1,0,0.3,0,0.6c-0.1,0.3-0.2,0.8-0.9,1c0,0,0,0,0,0c-0.1,0-0.1,0.1-0.1,0.3c-0.1,0.3-0.1,0.6-0.1,0.9
					c0.1,0,0.1,0,0.2,0c0.3,0,0.5,0.1,0.7,0.3c0.3,0.3,0.4,0.8,0.3,1.1c0,0.2-0.1,0.4-0.1,0.5c0.6,0.1,0.9,0.4,1,1.2
					c0,0.1,0,0.2,0,0.2c0.1,0.2,0.1,0.5,0.1,0.7c0,0.3,0.1,0.4,0.2,0.4c0.2,0.1,0.5,0.5,0.6,1c0.2,1,0.7,1.8,1.1,2.6
					c0.2,0.3,0.2,0.6,0.3,0.9c0.2-0.1,0.4-0.2,0.6-0.2c0,0,0.2,0,0.2,0c0.5,0.1,1,0.7,1,1.2v0.1
					C185.3,270.1,185.3,271.2,184.1,271.5z M178.6,249.1c0-0.7,0.5-1,0.9-1.1c0,0,0.1,0,0.2,0c0.4,0,0.6,0.2,0.7,0.2
					c0.6,0.4,0.9,1,0.8,1.7c0,0.4-0.3,0.8-0.6,0.9c-0.1,0.1-0.3,0.1-0.5,0.1c-0.2,0-0.4,0-0.5-0.1
					C179.1,250.6,178.5,250.1,178.6,249.1z M183.5,245.8c0.1-0.6,0.6-1,1.2-1c0.1,0,0.2,0,0.2,0c0.6,0.2,1,0.7,1,1.4
					c0,0.6-0.6,1.2-1.2,1.2c-0.2,0-0.4,0-0.5-0.1C183.7,247,183.4,246.5,183.5,245.8z M194.2,263.8c-0.2,0.1-0.3,0.1-0.5,0.1
					c-0.5,0-0.9-0.3-1.1-0.7c-0.3-0.6-0.1-1.3,0.5-1.6c0.1-0.1,0.4-0.4,0.6-0.5c-0.2-0.2-0.3-0.4-0.4-0.6c-0.2,0.1-0.4,0.2-0.6,0.2
					c-0.5,0-0.8-0.2-1-0.4c-0.7-0.5-1-1.1-0.9-1.9c-1.4-1-1.9-2.5-2.4-3.8c0-0.1-0.1-0.2-0.1-0.3c-0.1,0.2-0.3,0.4-0.7,0.5
					c-0.1,0-0.3,0.1-0.4,0.1c-0.3,0-0.5-0.1-0.7-0.2c-0.3-0.2-0.4-0.5-0.6-0.8c-0.1,0-0.2,0.1-0.4,0.1c-0.1,0-0.2,0-0.3,0
					c-0.3-0.1-0.5-0.2-0.6-0.5c-0.2-0.3-0.2-0.6-0.1-0.9c0.1-0.5,0.6-0.9,1.1-0.9c0,0,0.1,0,0.1,0c0,0,0-0.1,0-0.1
					c0.1-0.1,0.2-0.3,0.4-0.4c-0.3-0.2-0.5-0.5-0.7-0.7c-0.6-1-0.2-1.7,0.2-2.1l0.2-0.2c0.2-0.2,0.6-0.6,1.1-0.6c0,0,0-0.1,0.1-0.1
					c0.1-0.1,0.2-0.2,0.3-0.3c-0.2-0.3-0.9-1.8-1-2.2c0-0.1-0.2-0.2-0.3-0.3l-0.3-0.2c-1.1-0.9-1.7-2.1-1.8-3.8c0-0.2,0-0.4,0.1-0.6
					c-0.1-0.1-0.1-0.1-0.2-0.2c0-0.1-0.1-0.1-0.1-0.2c-0.1,0.4-0.5,0.7-1,0.7c-0.1,0-0.3,0-0.4-0.1c-0.6-0.2-1-0.7-1.2-1.4
					c-0.1-0.3,0-0.7,0.2-1c0-0.1,0.1-0.1,0.1-0.2c-0.4-0.1-0.9-0.3-1-0.8c-0.1-0.3-0.1-0.7-0.1-1.1l0-0.4c0-0.5,0-0.8-0.1-1
					c-0.1-0.2-0.2-0.5-0.1-0.7c-0.3-0.3-0.5-0.6-0.5-1.1c0,0,0-0.1,0-0.2c0-0.1,0-0.3,0-0.4c-0.1,0.2-0.3,0.3-0.5,0.4
					c-0.1,0-0.2,0-0.3,0c-0.4,0-0.9-0.2-1.1-0.6c-0.7-1.4-0.9-2.9-0.7-4.7c0-0.2,0.1-0.6,0.7-0.8c0,0,0,0,0,0c0.1,0,0.7-0.4,0.6-0.4
					c-0.9-0.1-1.5-0.6-1.7-1.5c-0.1-0.7-0.1-1.2,0.2-1.7c0.2-0.4,0.6-0.5,0.8-0.6c0,0,0,0,0,0c0-0.1,0-0.2,0.1-0.3
					c0-0.1,0-0.2,0-0.3c-0.1,0-0.3,0.1-0.4,0.1c-0.5,0-1.1-0.3-1.2-1.3c0-0.2,0-0.4,0-0.6c0-0.6,0.4-1,0.8-1.1c0-0.1,0-0.2-0.1-0.2
					c0,0-0.1-0.3-0.1-0.3c-0.1-0.6-0.4-1.5,0.4-2.5c0,0,0-0.2-0.2-0.4c0,0-0.1-0.1-0.1-0.1c-0.2-0.2-0.6-0.5-0.7-1.1
					c-0.1-0.6-0.2-2.5-0.2-3.2c0-0.9-0.1-1.8-0.2-2.6c-0.1-0.6-0.1-1.2-0.1-1.7c0-0.6,0-1.2-0.1-1.8c-0.1-0.4-0.1-0.9-0.1-1.3l0-0.3
					c0-0.6-0.1-1.4-0.3-2.1c-0.1-0.7-0.2-1.5-0.2-2.3c0-0.2,0-1,0-1c0-0.1,0-0.3,0-0.4c-0.4-0.5-0.5-1.1-0.3-1.9
					c0-0.2,0-0.3,0.1-0.5c0-0.5,0.1-1,0.3-1.6c-0.1-0.5-0.2-0.9-0.2-1.3c0-0.2,0-0.4-0.1-0.5c-0.2-0.6-0.1-1.3,0-1.8
					c0-0.5,0.1-0.8,0-1.2c0-0.1-0.1-0.3,0-0.5c0.2-0.5,0.2-1.1,0.3-1.7c0-0.3,0.1-0.5,0.1-0.8c0.1-0.4,0.1-0.8,0-1.1
					c0-0.1,0-0.3,0-0.4c0.2-0.7,0.3-1.4,0.3-2.1l0-0.2c0.1-0.8,0.1-1.6,0.4-2.3c0.2-0.6,0.3-1.2,0.3-1.9c0-0.3,0.1-0.5,0.1-0.7
					c0.3-2.3,0.6-4.2,0.8-6c0.1-0.5,0.2-0.9,0.3-1.4c0.1-0.2,0.1-0.4,0.2-0.6c0.1-0.4,0.2-0.7,0.3-1.1c0.3-0.9,0.5-1.6,0.5-2.4
					c0-0.1,0-0.1,0-0.2c0-0.1,0.1-0.2,0.1-0.2c0.3-0.5,0.4-1,0.6-1.7c0.1-0.5,0.2-1,0.4-1.5l0.1-0.2c0.1-0.3,0.2-0.5,0.2-0.7
					c0-0.4,0.1-0.7,0.3-1c0.3-0.3,0.4-0.7,0.5-1.4c0,0,0.1-0.5,0.1-0.6c0.1-0.3,0.2-0.7,0.4-1.1c0.4-0.8,0.8-1.7,1.2-2.6l0.3-0.7
					c0.2-0.5,0.5-0.9,0.7-1.3c0.1-0.2,0.2-0.3,0.3-0.5c0.2-0.3,0.9-0.6,0.8-0.7c-0.2-0.3-0.2-0.7,0-1.1c0,0,0.6-1.1,0.7-1.4
					c0.2-0.4,0.6-0.7,1.1-0.8c0,0,0,0,0.1,0c-0.1-0.1-0.1-0.1-0.1-0.2c-0.3-0.7,0.2-1.4,0.5-1.8c0.2-0.3,0.4-0.5,0.6-0.8
					c0.2-0.2,0.3-0.4,0.2-0.4c-0.3-0.1-0.8-0.4-0.6-1.4c0.2-0.6,0.1-0.7,0-0.9c-0.2-0.3-0.3-0.7-0.1-1.1c0.2-0.3,0.5-0.5,0.9-0.5
					c0,0,0.2,0,0.2,0c0.4,0.1,0.8,0.2,1.2,0.3c0,0,0.1,0,0.1,0c0.2,0,0.6,0.1,0.8,0.4c0.1,0.2,0.3,0.5,0.3,0.9
					c0,0.3-0.2,0.9-1.1,1.1c0,0.3-0.1,0.6-0.4,0.9c-0.1,0.1,0.3,0.7,0.4,0.9c0.1,0.2,0.4,0.6,0.3,1.1c0,0.1-0.1,0.3-0.1,0.4l0,0.4
					c0,0.3,0,0.5-0.1,0.7c-0.1,0.5-0.6,1-1.1,1h0c-0.2,0-0.4,0-0.5-0.1c-0.1,0-0.2,0-0.3,0c0.1,0.3,0.1,0.6,0,0.8
					c-0.2,0.5-0.5,1.1-0.8,1.6c-0.2,0.3-0.5,0.7-1.3,0.7c0,0,0,0.5,0,0.8c0,0.5-0.2,1-0.3,1.4c-0.1,0.2-0.1,0.4-0.2,0.6
					c0,0.1-0.1,0.2-0.1,0.3c0.2,0.1,0.3,0.3,0.4,0.3c0.3,0.4,0.3,0.9,0.1,1.3c-0.2,0.4-0.5,0.7-1,0.7c0.3,0.8,0.1,1.7-0.1,2.2
					c0,0.1-0.1,0.3-0.1,0.4c-0.2,0.7-0.4,1.5-0.2,2.2c0.1,0.4,0.2,1.2-0.3,1.8c0,0.7-0.4,1.3-1,1.8c0.2,0.3,0.3,0.5,0.3,0.9
					c0.1,0.6,0,1.1-0.3,1.7c0,0,0,0.1-0.1,0.1c0.1,0.2,0.2,0.4,0.3,0.6c0.1,0.1,0.2,0.2,0.3,0.3c0.2,0.2,0.3,0.6,0,1.2
					c-0.3,0.7-0.2,1.6,0.3,2.3c0.1,0.2,0.4,0.5,0.3,1c0,0.2-0.1,0.3-0.2,0.5c0.2,0.2,0.3,0.5,0.3,0.9c0,1-0.7,1.3-1.2,1.3
					c0,0-0.1,0-0.1,0c0,0.2-0.1,0.4-0.1,0.7c0,0,0,0.1,0,0.1c-0.2,0.7-0.3,1.2,0,1.7c0.5,0.9,0.1,1.9-0.2,2.5
					c-0.1,0.3-0.1,0.6-0.2,1c0,0,0,0.4,0,0.5c0.7,1,0.3,2,0,2.5c-0.2,0.5-0.3,1.1-0.3,1.7c0,0.3,0,0.6-0.1,0.9
					c-0.1,0.5-0.2,0.9-0.4,1.3c-0.1,0.3-0.2,0.6-0.3,0.8c-0.1,0.3-0.3,0.5-0.5,0.6c0,0.1,0,0.1,0.1,0.2c0.2-0.3,0.5-0.5,0.8-0.5
					c0,0,0.1,0,0.2,0c0.2,0,0.4,0.2,0.6,0.4c0.4,0.5,0.3,1,0.3,1.2c0.1,0.2,0.3,0.7,0,1.1c-0.1,0.1-0.2,0.3-0.4,0.4
					c0.4,0.2,0.9,0.7,0.8,1.7c0,0,0,0.1,0,0.2c0,0.1-0.1,0.3-0.1,0.4c-0.1,0.3-0.4,0.6-0.9,0.7c0,0,0,0-0.1,0h0
					c-0.2,0-0.3-0.1-0.5-0.1c0,0,0,0,0,0c-0.1,0.4-0.1,0.7,0.4,1.4c0.3,0.3,0.3,0.7,0.2,1c0,0.1,0,0.2,0,0.3
					c0.2,0.5,0.5,0.6,0.5,0.6c0.3-0.7,1.1-1,1.7-1c0.5,0,1,0.2,1.2,0.7c0.1,0.2,0.2,0.6,0.2,0.9c0,0.4,0,0.9,0,1.2v0.3
					c0,0.2,0,0.5,0,0.7c0,0.9,0.1,1.8-0.5,2.4c-0.4,0.4-0.8,0.5-1,0.5c-0.2,0-0.3,0-0.4-0.1c0.1,0.1,0.3,0.2,0.3,0.3
					c0.3,0.3,0.4,0.6,0.5,0.9l0.2,0.4c0.1,0.3,0.2,0.4,0.3,0.5c0.4,0.2,0.6,0.6,0.7,1c0,0.4-0.1,0.7-0.3,1.1c0.1,0.2,0.1,0.4,0,0.6
					c0.1,0.3,0.1,0.5,0,0.7c-0.1,0.4-0.5,0.7-1,0.8c-0.2,0-0.4,0.1-0.5,0.1c-0.2,0-0.3,0-0.5-0.1c-0.1,0.4-0.1,1.4,0,1.7
					c0,0,0.1,0.1,0.1,0.2c0.2,0.5,0,1-0.1,1.3c0,0,0,0,0,0c0.2,0.2,0.5,0.5,0.7,1c0.2,0.5,0,1-0.4,1.4c-0.1,0-0.1,0.1-0.1,0.1
					c0.3,0.3,0.4,0.7,0.4,0.9c0,0,0,0.1,0.3,0.3c0.6,0.6,0.5,1.4,0.4,1.7c0,0.2-0.1,0.4-0.1,0.6c0,0.4-0.1,0.8-0.2,1.2
					c0.3,0.4,0.5,0.7,0.6,1.1c0.2,0.4,0.3,0.6,0.4,0.8c0.2,0.2,0.4,0.6,0.2,1.2l-0.1,0.3c-0.1,0.3-0.1,0.5,0,0.6
					c0.2,0.4,0.1,1,0,1.3c-0.1,0.4-0.2,0.8,0.4,1.6c0.3,0.4,0.4,0.7,0.4,1.1c0.5,0.2,0.8,0.7,0.8,1.2c0,0.3,0.1,0.5,0.3,0.9
					c0.2,0.4,0.3,0.7,0.3,1c0,0.1,0.1,0.3,0.1,0.4c0.1,0.4,0.3,0.8,0.3,1.3c0,0,0,0.1,0.1,0.1l0.8,2.5c0.5,1.5,1,3,1.4,4.5
					c0.4,1.4,1,3,1.8,4.5c0.2,0.3,0.3,0.7,0.3,1c0.1,0.4,0.2,0.8,0.4,1.2c0.1,0.4,0.2,0.7,0.3,0.9c0.5,1.7,1.1,3,1.7,4.2
					c0.2,0.3,0.3,0.6,0.4,1c0.1,0.8,0.5,1.6,0.9,2.4c0.2,0.4,0.4,0.8,0.6,1.2c1.2,1.6,0.7,3.2,0.3,4.2c-0.2,0.4-0.6,0.8-1.1,0.8
					c-0.2,0-0.3,0-0.5-0.1c-0.1,0-0.3,0.1-0.7,0.4C194.4,263.7,194.3,263.8,194.2,263.8z M186,166.7c0.3,0,0.5,0.1,0.7,0.3
					c0.3,0.3,0.7,0.8,0.5,1.8c0,0.2-0.1,0.3-0.1,0.5l-0.1,0.3c-0.2,0.9-0.8,1-1.1,1c-0.1,0-0.2,0-0.3,0c-0.3-0.1-0.8-0.3-0.9-1.2
					c0-0.1,0-0.2,0-0.3l0-0.3c0,0,0-0.4,0-0.4C184.8,167.5,185.2,166.7,186,166.7z M185.4,161.8c0.1-0.3,0.2-0.8,0.2-1.2
					c0.1-0.7,0.2-1.5,0.6-2.2c0.2-0.4,0.4-0.8,0.4-1.2c0-0.6,0.5-1.1,1.2-1.1c0,0,0.2,0,0.2,0c0.7,0.1,1.1,0.7,0.9,1.4l0,0.2
					c0,0.2-0.1,0.6-0.3,0.9c-0.2,0.4-0.3,0.8-0.4,1.3c0,0.3-0.1,0.5-0.1,0.7c-0.2,0.7-0.3,1.3-0.5,2c-0.1,0.4-0.5,0.6-0.6,0.6
					c0,0-0.2,0.1-0.2,0.1s-0.2,0-0.3,0c-0.4,0-0.9-0.3-1.1-0.6C185.3,162.4,185.2,162.1,185.4,161.8z M186.4,221.7
					c0.1-0.4,0.3-0.8,0.6-1c0,0,0,0,0-0.1c-0.1-0.2,0-0.4,0-0.6c0-0.7,0.4-1.1,1-1.2c0,0,0,0,0,0c0.6,0,1,0.3,1.2,0.8
					c0.1,0.1,0.1,0.3,0.1,0.4l0,0.2c0.1,0.6,0.2,1.1,0.4,1.5c0.1,0.2,0.2,0.5,0.2,0.7c0,0.1,0,0.2,0,0.3c0,0.3-0.1,1.3-1.2,1.5
					l-0.1,0c-0.2,0.2-0.5,0.2-0.7,0.2c-0.5,0-0.9-0.3-1.1-0.7C186.6,223.2,186.3,222.5,186.4,221.7z M198.6,268.3
					c-0.2,0.2-0.3,0.3-0.5,0.5c-0.1,0.1-0.1,0.1-0.2,0.2l-0.1,0.1c-0.1,0.1-0.3,0.2-0.5,0.2c-0.2,0-0.3-0.1-0.4-0.2l-0.1-0.1
					l-0.1-0.1c-0.2-0.1-0.5-0.3-0.6-0.8c-0.1-0.4-0.1-0.8,0.1-1.1c-0.7-0.1-1.2-0.6-1.3-1.4c0-0.1,0-0.1,0-0.2
					c0.1-0.7,0.7-1.1,1.4-1.1c0.5,0,0.8,0.2,1.1,0.5c0.2,0.3,0.4,0.6,0.3,1c0,0.2-0.1,0.3-0.1,0.4c0.2,0,0.4,0.1,0.6,0.2
					c0.4,0.2,0.6,0.5,0.6,0.8C199.1,267.7,198.8,268.1,198.6,268.3z M240.6,302.2l-0.2,0.1c-0.2,0.1-0.4,0.1-0.6,0.1
					c-0.8,0-1.5-0.7-2.3-1.5l-0.1-0.1c-0.3-0.3-0.6-0.6-0.9-0.8l-0.5-0.4c-0.3-0.3-0.7-0.5-1-0.8l-1.3-1.2l-0.9-0.9
					c-0.7-0.6-1.3-1.2-2-1.9l-2.8-3c-0.2-0.2-0.4-0.4-0.5-0.5c-0.3-0.3-0.5-0.5-0.8-0.8c-0.2-0.3-0.4-0.6-0.6-0.9l-0.1-0.1
					c-0.2-0.3-0.5-0.7-0.7-1c-0.4-0.5-0.8-0.9-1.2-1.2c-0.5-0.4-1-0.9-1.5-1.6c-0.3-0.5-0.7-1-1.1-1.6l-0.2-0.3
					c-2.8-4.1-3.6-5.5-3.3-6.4c0.1-0.3,0.3-0.5,0.6-0.7c0,0,0.2-0.1,0.2-0.1c0.1,0,0.2,0,0.2,0c0.2,0,0.4,0.1,0.5,0.3l1.3,1.7
					c0,0,0.3,0.4,0.4,0.5l3.1,3.8c0.5,0.7,1,1.3,1.6,1.8c0.4,0.4,0.7,0.8,1,1.1c0.4,0.5,1.7,2,1.7,2c0.3,0.3,0.6,0.7,0.9,1
					c0.9,1,1.9,1.8,3,2.8c0.9,0.8,1.8,1.7,2.8,2.6c0.3,0.4,0.6,0.9,0.8,1.3c0.1,0.3,0.3,0.7,0.4,0.8c0,0,0.6,0.7,0.7,0.8
					c0.1,0.1,0.2,0.3,0.4,0.4l0.3,0.3c1.2,1.2,2.1,2.2,3,3.2l0.1,0.1c0.1,0.2,0.2,0.4,0.2,0.6C240.9,301.9,240.8,302.1,240.6,302.2z
					 M268.1,336.3c-0.2,0.3-0.5,0.5-0.9,0.5c-0.3,0-0.5,0.1-0.8,0.1c-0.1,0-0.2,0-0.3,0c-0.1,0-0.3-0.1-0.4-0.1
					c-0.2,0.4-0.5,0.8-1,0.9c-0.7,0.1-1.3,0.2-2,0.2c0,0,0,0,0,0h0c-0.6,0-1-0.5-1-0.6c-0.2-0.3-0.2-0.7-0.2-0.9
					c0.3-0.8,0.7-1.2,1.1-1.3c0.3,0,0.6-0.1,0.9-0.1c0.2,0,0.4,0,0.6,0c0.2,0,0.3,0,0.5,0c0.1,0,0.3,0,0.4,0.1
					c0.1-0.3,0.3-0.5,0.6-0.6c0.4-0.2,0.7-0.3,1.1-0.3c0.2,0,0.5,0,0.7,0.1c0.1,0,0.2,0.1,0.3,0.2c0,0,0.1,0.1,0.1,0.1
					c0.2,0.2,0.3,0.3,0.4,0.6C268.3,335.6,268.3,336,268.1,336.3z M276,335.7c-0.5,0.7-2.4,0.7-2.8,0.7H273c-0.1,0-0.1,0-0.2,0
					c-0.2,0-0.3-0.1-0.5-0.1c-0.6-0.1-1-0.2-1.3-0.5c-0.3-0.3-0.4-0.7-0.2-1.1c0.4-0.9,1.8-1,2.7-1c0.3,0,0.6,0,0.9,0.1
					c0.5,0.1,1.5,0.4,1.7,1.1C276.3,335.1,276.2,335.5,276,335.7z"/>
			</g>
		</g>
	</g>
</g>
<g id="Guides" class="st0">
	<rect x="61.8" y="61.9" class="st1" width="515.3" height="535.2"/>
	<g class="st2">
		<rect class="st3" width="61.9" height="61.9"/>
		<text transform="matrix(1 0 0 1 20.3454 40.1426)" class="st4 st5 st6">x</text>
	</g>
	<g class="st2">
		<rect x="577.1" class="st3" width="61.9" height="61.9"/>
		<text transform="matrix(1 0 0 1 597.4937 40.1426)" class="st4 st5 st6">x</text>
	</g>
	<g class="st2">
		<rect y="597.2" class="st3" width="61.9" height="61.9"/>
		<text transform="matrix(1 0 0 1 20.3454 637.2986)" class="st4 st5 st6">x</text>
	</g>
	<g class="st2">
		<rect x="577.1" y="597.2" class="st3" width="61.9" height="61.9"/>
		<text transform="matrix(1 0 0 1 597.4937 637.2986)" class="st4 st5 st6">x</text>
	</g>
</g>
</svg>
