<svg width="10" height="8" viewBox="0 0 10 8" fill="none" xmlns="http://www.w3.org/2000/svg">
<path d="M4.58903 7.2845C4.6349 7.35112 4.69628 7.40559 4.76787 7.44322C4.83947 7.48085 4.91914 7.50052 5.00003 7.50052C5.08091 7.50052 5.16059 7.48085 5.23218 7.44322C5.30378 7.40559 5.36516 7.35112 5.41103 7.2845L9.91103 0.7845C9.96312 0.709529 9.99366 0.621716 9.99935 0.530603C10.005 0.43949 9.98564 0.348562 9.94327 0.267697C9.90091 0.186832 9.83719 0.119124 9.75905 0.0719291C9.6809 0.024734 9.59132 -0.000143172 9.50003 6.19827e-07H0.500029C0.408951 0.000376824 0.319698 0.0255739 0.24187 0.0728821C0.164041 0.12019 0.100581 0.18782 0.0583138 0.268497C0.0160467 0.349175 -0.00342795 0.439848 0.00198403 0.530766C0.00739601 0.621684 0.0374899 0.709407 0.0890293 0.7845L4.58903 7.2845Z" fill="black"/>
</svg>
